<svg xmlns="http://www.w3.org/2000/svg" width="306.208" height="351.217" viewBox="0 0 306.208 351.217"><g transform="translate(-142.515 -377.709)" style="isolation:isolate"><path d="M357.1,618.822s23.332,39.26,22.692,65.192-31.6,30.666-31.6,30.666-33.918,3.485-59.474,3.485-42.747-3.485-42.747-3.485-31.711-.929-36.242-24.626,18.121-70.16,18.121-70.16,35.039,4.729,67.564,4.729A356.305,356.305,0,0,0,357.1,618.822Z" transform="translate(2.015 7.325)" fill="#fff" stroke="#707070" stroke-linecap="round" stroke-linejoin="round" stroke-width="5"/><path d="M0,71.99s16.979-2.1,23.507-28.9S23.077,0,23.077,0a26.243,26.243,0,0,0-8.194,8.092c-3.653,5.441-6.857,14.416-9.344,23.77C.643,50.276,0,71.99,0,71.99Z" transform="matrix(-0.848, 0.53, -0.53, -0.848, 396.17, 690.156)" fill="#e8e8e8"/><path d="M9.332,74.779s4.211-10.036,16.381-38.9S8.738,0,8.738,0,2.131,26.541,2.511,47.741,9.332,74.779,9.332,74.779Z" transform="matrix(0.978, 0.208, -0.208, 0.978, 222.962, 628.107)" fill="#e8e8e8"/><g transform="translate(139 380)" fill="#fff"><path d="M 152.8852233886719 252.1179656982422 C 141.2740478515625 252.1179656982422 130.7942962646484 251.6980895996094 120.8471298217773 250.8343811035156 C 109.687629699707 249.8654174804688 99.29121398925781 248.3132171630859 89.94667816162109 246.2208404541016 C 79.638671875 243.9127502441406 70.25100708007812 240.8684997558594 62.04446792602539 237.1725921630859 C 53.17084121704102 233.1763000488281 45.39788436889648 228.2923736572266 38.94142532348633 222.6564636230469 C 35.77900695800781 219.8959655761719 32.81550979614258 216.8789672851562 30.13325881958008 213.689208984375 C 27.5433406829834 210.6092987060547 25.14004898071289 207.2784118652344 22.99013328552246 203.7891235351562 C 18.92775726318359 197.1959228515625 15.58575820922852 189.7319641113281 13.05696678161621 181.6046752929688 C 8.654716491699219 167.4563751220703 6.514758110046387 150.9230499267578 6.514758110046387 131.0599212646484 C 6.514758110046387 122.3366241455078 8.040299415588379 112.8651275634766 11.04896640777588 102.9085845947266 C 13.60321617126465 94.45591735839844 17.28355026245117 85.46858215332031 21.98775863647461 76.19621276855469 C 28.1120491027832 64.12454223632812 36.13871765136719 53.00096130371094 45.84475708007812 43.13446044921875 C 52.24917602539062 36.62375259399414 59.40671539306641 30.71191787719727 67.11867523193359 25.56308555603027 C 74.95905303955078 20.32846069335938 83.44963073730469 15.83171081542969 92.35450744628906 12.19762706756592 C 101.4810485839844 8.473127365112305 111.1506729125977 5.611585140228271 121.094841003418 3.692585468292236 C 131.3533020019531 1.712960362434387 142.0491333007812 0.7091686725616455 152.8852233886719 0.7091686725616455 C 163.0508422851562 0.7091686725616455 173.2908477783203 1.679585337638855 183.32080078125 3.593460321426392 C 193.0454711914062 5.449085235595703 202.6784210205078 8.210752487182617 211.9521331787109 11.80183506011963 C 221.0122222900391 15.31012725830078 229.8028869628906 19.63766860961914 238.0800476074219 24.66416931152344 C 246.2416381835938 29.62046051025391 253.9525909423828 35.28533554077148 260.9987487792969 41.50137710571289 C 268.0186767578125 47.69425201416016 274.4131469726562 54.46445846557617 280.0045166015625 61.62387847900391 C 285.6341247558594 68.83225250244141 290.47900390625 76.47341918945312 294.4046020507812 84.33504486083984 C 298.3964233398438 92.32942199707031 301.4650573730469 100.6084213256836 303.525146484375 108.9420471191406 C 305.6387023925781 117.4922103881836 306.7104187011719 126.1843338012695 306.7104187011719 134.7770385742188 C 306.7104187011719 136.2986297607422 306.7135620117188 137.8444976806641 306.7165832519531 139.3394622802734 C 306.7434387207031 152.59375 306.7711791992188 166.2993011474609 304.6152954101562 178.6705780029297 C 303.4724731445312 185.2285919189453 301.8218383789062 190.930419921875 299.569091796875 196.1019592285156 C 297.06591796875 201.8482513427734 293.8804626464844 206.8152160644531 289.8306274414062 211.2867126464844 C 283.4627685546875 218.31787109375 274.9083862304688 224.6277465820312 264.4051818847656 230.0410919189453 C 254.6669616699219 235.0600891113281 243.2083892822266 239.3368835449219 230.3476257324219 242.7526245117188 C 218.4922637939453 245.9013824462891 205.5184631347656 248.3043823242188 191.7867126464844 249.8950042724609 C 179.0522613525391 251.3700408935547 165.9639282226562 252.1179656982422 152.8852233886719 252.1179656982422 Z" stroke="none"/><path d="M 152.8852386474609 3.709152221679688 C 111.5815124511719 3.709152221679688 74.32669067382812 18.45777893066406 47.98336791992188 45.23828125 C 38.4937744140625 54.88478088378906 30.64773559570312 65.7572021484375 24.66314697265625 77.55351257324219 C 14.61138916015625 97.36624145507812 9.514739990234375 115.3684234619141 9.514739990234375 131.0599212646484 C 9.514739990234375 173.3096466064453 19.49215698242188 201.6969299316406 40.91427612304688 220.3963775634766 C 63.05473327636719 239.7230072021484 99.68074035644531 249.117919921875 152.8852386474609 249.117919921875 C 200.5687408447266 249.117919921875 261.0006408691406 238.6506042480469 287.6071166992188 209.2728271484375 C 303.8219299316406 191.3697357177734 303.770751953125 166.0994567871094 303.7166137695312 139.345458984375 L 303.7104187011719 134.7770690917969 C 303.7104187011719 64.95582580566406 233.2313842773438 3.709152221679688 152.8852386474609 3.709152221679688 M 152.8852386474609 -2.290847778320312 C 237.3800964355469 -2.290847778320312 309.7104187011719 62.7999267578125 309.7104187011719 134.7770690917969 C 309.7104187011719 163.56787109375 310.8161926269531 192.5851898193359 292.0542297363281 213.3005981445312 C 264.4186096191406 243.8147888183594 203.5821533203125 255.117919921875 152.8852386474609 255.117919921875 C 109.9618225097656 255.117919921875 64.86328125 249.2660980224609 36.96859741210938 224.9165191650391 C 10.17056274414062 201.5243835449219 3.514739990234375 166.47265625 3.514739990234375 131.0599212646484 C 3.514739990234375 111.6260986328125 10.68209838867188 91.84979248046875 19.3123779296875 74.83888244628906 C 25.5733642578125 62.49774169921875 33.72073364257812 51.18106079101562 43.70611572265625 41.03056335449219 C 69.80583190917969 14.49769592285156 107.9196014404297 -2.290847778320312 152.8852386474609 -2.290847778320312 Z" stroke="none" fill="#707070"/></g><path d="M227.3,392.141" transform="translate(2.564 0.437)" fill="none" stroke="#707070" stroke-width="1"/><path d="M3.136,7.523S10.105,28.432,24.509,27.5,32.873,2.877,32.873,2.877" transform="translate(242.528 697.987)" fill="none" stroke="#707070" stroke-width="5"/><path d="M-.921,1.23s-.465,24.626,14.4,24.161S28.816,7.735,28.816,7.735" transform="translate(313.492 701.028)" fill="none" stroke="#707070" stroke-width="5"/><path d="M-12.35,50.61s24.868-8.584,37.636-22.3c15.1-16.222,23.181-39.805,9.757-49.252C9.952-38.6.195,16.691.195,16.691s1.592,11.54-.841,18.285S-12.35,50.61-12.35,50.61Z" transform="translate(381.143 664.194)" fill="#fff" stroke="#707070" stroke-width="5"/><path d="M145-2.321c40.74.129,73.607,14.665,100.386,36.457.293.5,18.771,1.829,29.841,10.3,13,10.781,22.833,22.925,3.851,28.3-.052.123,14.047,21.487,15.895,62.748,0,19.164-31.249,9.235-72.942-9.441-25.46-11.4-43.2-34.383-73.413-34.383-26.1,0-39.494,17.656-68.766,29.272C36.733,145.484-.4,159.665-.4,138.888-.4,122.607,1.018,98.8,14.1,73.469c.2.127-21.559-6.9-10.589-17.849C6.882,51.928,18.312,42.507,42,29.183,69.493,13.745,115.59-4.289,145-2.321Z" transform="translate(148.154 386.176)" fill="#e8e8e8"/><path d="M9.829.019c12.5-3.918,7.749,10.6,5.872,25.756S12.471,49.786,7.066,49.786s-8.885-6.85-8.384-24.011S-2.675,3.937,9.829.019Z" transform="translate(241.877 387.262)" fill="#9e9e9e"/><path d="M10.828,0c13.6-.01,10.217,1.12,10.818,31.011S14.162,63.4,10.828,63.4.249,59.019.01,31.011-2.768.01,10.828,0Z" transform="translate(284.148 383.16)" fill="#9e9e9e"/><path d="M10.148,2.182c11.6,6.138,10.983,2.572,11.534,22.27S16.839,49.693,10.865,49.693-.565,46.235.047,24.452-1.447-3.956,10.148,2.182Z" transform="matrix(0.985, -0.174, 0.174, 0.985, 328.452, 390.328)" fill="#9e9e9e"/><ellipse cx="13" cy="11.5" rx="13" ry="11.5" transform="translate(352 504)" fill="#171717"/><circle cx="11.5" cy="11.5" r="11.5" transform="translate(202 504)" fill="#080808"/><ellipse cx="17.5" cy="12.5" rx="17.5" ry="12.5" transform="translate(176 520)" fill="#d84a4a" opacity="0.63"/><ellipse cx="17.5" cy="13.5" rx="17.5" ry="13.5" transform="translate(373 516)" fill="#d84a4a" opacity="0.63"/><path d="M-.339,26.265S28.443,30.645,31.7,21.26,7.222,0,7.222,0Z" transform="translate(149.701 466.095)" fill="#707070"/><path d="M0,17.686s23.472,9.627,28.865,2.083S3.485,0,3.485,0L.52,8.761Z" transform="matrix(-0.899, 0.438, -0.438, -0.899, 444.645, 495.046)" fill="#707070"/><path d="M-.235,9.358S13.619,14.6,16.1,9.119,1.8-.241,1.8-.241Z" transform="translate(444.645 511.152) rotate(163)" fill="#707070"/><path d="M-.162,16.5s13.148-1.479,14.736-8.145S1.393.584,1.393.584Z" transform="translate(146.576 503.716)" fill="#707070"/><path d="M51.518.174a71.078,71.078,0,0,1-8.971.4C27.94.15,26.778-5.747,26.778-5.747S24.149,1.9,11.884,2.407A45.1,45.1,0,0,1,.006,1.2c-1.738-.389,7.912.533,11.878,4.814,3.4,7.063,8.576,14.286,16.561,14.126,8.255-.165,12.716-7.633,14.1-16.689C44.658.431,51.518.174,51.518.174Z" transform="translate(267.153 527.736)" fill="#df6b6b" stroke="#707070" stroke-linejoin="round" stroke-width="5"/><path d="M-.339,12.657S15.708,16.525,17.99,12,4.965,0,4.965,0Z" transform="translate(221.508 640.206)" fill="#707070"/><path d="M-.339,12.648s13.728,1.331,16.011-3.192S5.179.311,5.179.311Z" transform="translate(214.296 659.502)" fill="#707070"/><path d="M0,9.337s9.329,3.379,11.612-1.144S3.224,0,3.224,0Z" transform="matrix(-0.848, 0.53, -0.53, -0.848, 380.585, 675.721)" fill="#707070"/><path d="M0,11.355s8.135.022,10.418-4.5S1.306,0,1.306,0Z" transform="matrix(-0.848, 0.53, -0.53, -0.848, 372.605, 654.714)" fill="#707070"/><path d="M1.173,21.583c1.606,3.651,18.641,11.627,23,.8S18.084-.154,11.726,0,2.8,4.871,1.22,8.456A18.608,18.608,0,0,0,1.173,21.583Z" transform="matrix(-0.998, -0.07, 0.07, -0.998, 417.368, 678.49)" fill="#707070" opacity="0.41"/><path d="M.539,11.914c.892,2.095,11.3,7.14,13.718.93S10.878-.088,7.348,0,1.7,2.89.824,4.946A9.487,9.487,0,0,0,.539,11.914Z" transform="matrix(-0.998, -0.07, 0.07, -0.998, 401.72, 695.465)" fill="#707070" opacity="0.38"/><path d="M-44.633,3.164S-17.927,1.1-.271,27.117C4.17,38.749-7.885,46.574-12.928,48.787c-19.129,8.643-38.565-6.5-38.565-6.5" transform="translate(438.871 414.415)" fill="none" stroke="#707070" stroke-linejoin="round" stroke-width="7"/><path d="M39.878.276S-37.3,34.015-47.558,53.367s31.333,20.985,52.732,17.4" transform="translate(195.607 390.168)" fill="none" stroke="#707070" stroke-width="5"/><path d="M7.026,14.491a7.383,7.383,0,0,0,6.989-5.958C14.832,5.187,15.644.115,7.282,0S-.136,3.887.227,7.785,3.264,14.738,7.026,14.491Z" transform="matrix(-0.545, 0.839, -0.839, -0.545, 419.311, 664.469)" fill="#707070"/><path d="M4.659,9.371A5.748,5.748,0,0,0,8.84,5.4C9.115,4.012,8.921.086,4.748,0S-.014,2.888,0,4.531,2.511,9.7,4.659,9.371Z" transform="translate(402.825 687.863) rotate(129)" fill="#707070"/><path d="M10.839,4.067c.009-.1,12.278-.525,12.291,7.579s-2.2,14.128-9.362,14.128S4,21.249-.133,12.08,10.83,4.17,10.839,4.067Z" transform="matrix(0.996, -0.087, 0.087, 0.996, 249.97, 698.983)" fill="#fff"/><path d="M16.714,3.205c.009-.1,9.5,1.009,9.509,9.113a14.544,14.544,0,0,1-14.2,14.287c-7.162,0-10.444-8.964-9.93-18.053S16.705,3.309,16.714,3.205Z" transform="matrix(0.996, -0.087, 0.087, 0.996, 312.97, 698.983)" fill="#fff"/></g></svg>