<svg xmlns="http://www.w3.org/2000/svg" width="84" height="84" viewBox="0 0 84 84"><g transform="translate(3895.256 -2068.364)"><circle cx="-3853.256" cy="2110.364" r="42" fill="#ff7e35"/><g fill="#fff" transform="translate(-2214.362 989.675)"><path style="line-height:normal;text-indent:0;text-align:start;text-decoration-line:none;text-decoration-style:solid;text-decoration-color:#000;text-transform:none;block-progression:tb;white-space:normal;isolation:auto;mix-blend-mode:normal;solid-color:#000;solid-opacity:1" d="m -1647.1445,1098.7645 0,11.6133 c 0,2.9433 1.5713,5.6606 4.125,7.1328 2.5536,1.4721 5.6982,1.4721 8.2519,0 2.5537,-1.4722 4.1231,-4.1895 4.1231,-7.1328 l 0,-11.6133 -8.25,5.5 -8.25,-5.5 z m 3.5996,7.9336 1.9746,0.9883 -0.6719,1.3418 -1.9746,-0.9883 0.6719,-1.3418 z m 9.3027,0 0.6719,1.3418 -1.9746,0.9883 -0.6719,-1.3418 1.9746,-0.9883 z" color="#000" enable-background="accumulate" font-family="sans-serif" font-weight="400" overflow="visible"/><path style="line-height:normal;text-indent:0;text-align:start;text-decoration-line:none;text-decoration-style:solid;text-decoration-color:#000;text-transform:none;block-progression:tb;white-space:normal;isolation:auto;mix-blend-mode:normal;solid-color:#000;solid-opacity:1" d="m -1644.5332,1118.2978 c 0.2495,0.1771 0.4974,0.357 0.7656,0.5117 3.0155,1.7384 6.7325,1.7384 9.7481,0 0.2682,-0.1547 0.5162,-0.3346 0.7656,-0.5117 l 8.5078,16.0605 -4.5879,8.2539 -19.1191,0 -4.5879,-8.2539 8.5078,-16.0605 z" color="#000" enable-background="accumulate" font-family="sans-serif" font-weight="400" overflow="visible"/><path style="line-height:normal;text-indent:0;text-align:start;text-decoration-line:none;text-decoration-style:solid;text-decoration-color:#000;text-transform:none;block-progression:tb;white-space:normal;isolation:auto;mix-blend-mode:normal;solid-color:#000;solid-opacity:1" fill-rule="evenodd" d="m -1617.5039,1108.9805 -5.2813,7.4004 4.9161,7.875 -7.5059,6.5312 0.9844,1.1328 8.4726,-7.373 -5.0625,-8.1094 4.6973,-6.5859 -1.2207,-0.8711 z" color="#000" enable-background="accumulate" font-family="sans-serif" font-weight="400" overflow="visible"/></g></g></svg>