<svg width="528" height="529" viewBox="0 0 528 529" fill="none" xmlns="http://www.w3.org/2000/svg">
<path d="M272.466 262.77C272.466 267.107 268.949 270.623 264.612 270.623C260.275 270.623 256.758 267.107 256.758 262.77C256.758 258.432 260.275 254.916 264.612 254.916C268.949 254.916 272.466 258.432 272.466 262.77Z" fill="#F7791F"/>
<path d="M245.595 246.067C249.267 247.937 250.727 252.43 248.856 256.102C246.985 259.773 242.492 261.233 238.821 259.362C235.149 257.492 233.689 252.999 235.56 249.327C237.431 245.656 241.924 244.196 245.595 246.067Z" fill="#F7791F"/>
<path d="M239.453 271.43C242.909 269.186 247.53 270.168 249.774 273.624C252.018 277.079 251.036 281.7 247.58 283.944C244.124 286.189 239.504 285.207 237.259 281.751C235.015 278.295 235.997 273.674 239.453 271.43Z" fill="#F7791F"/>
<path d="M258.214 289.592C257.998 285.477 261.159 281.966 265.274 281.75C269.389 281.535 272.9 284.696 273.115 288.811C273.331 292.926 270.17 296.436 266.055 296.652C261.94 296.868 258.429 293.707 258.214 289.592Z" fill="#F7791F"/>
<path d="M283.27 282.291C279.598 280.42 278.139 275.927 280.009 272.256C281.88 268.584 286.373 267.125 290.044 268.995C293.716 270.866 295.176 275.359 293.305 279.03C291.434 282.702 286.941 284.162 283.27 282.291Z" fill="#F7791F"/>
<path d="M289.537 256.921C286.081 259.166 281.46 258.183 279.216 254.727C276.972 251.272 277.954 246.651 281.41 244.407C284.865 242.162 289.486 243.144 291.731 246.6C293.975 250.056 292.993 254.677 289.537 256.921Z" fill="#F7791F"/>
<path d="M270.748 238.852C270.963 242.967 267.802 246.478 263.687 246.694C259.572 246.909 256.062 243.748 255.846 239.633C255.63 235.518 258.791 232.008 262.906 231.792C267.021 231.576 270.532 234.737 270.748 238.852Z" fill="#F7791F"/>
<path d="M241.696 220.668C243.991 223.826 243.291 228.246 240.133 230.541C236.974 232.835 232.554 232.135 230.259 228.977C227.965 225.819 228.665 221.399 231.823 219.104C234.981 216.809 239.402 217.51 241.696 220.668Z" fill="#F7791F"/>
<path d="M222.981 237.862C226.547 239.45 228.151 243.628 226.563 247.195C224.975 250.761 220.797 252.365 217.231 250.777C213.665 249.189 212.061 245.011 213.649 241.445C215.236 237.879 219.415 236.275 222.981 237.862Z" fill="#F7791F"/>
<path d="M215.421 262.152C219.303 261.744 222.781 264.56 223.189 268.443C223.597 272.325 220.781 275.803 216.898 276.211C213.016 276.619 209.538 273.803 209.13 269.92C208.722 266.038 211.538 262.56 215.421 262.152Z" fill="#F7791F"/>
<path d="M220.904 286.916C224.062 284.622 228.482 285.322 230.777 288.48C233.071 291.638 232.371 296.059 229.213 298.353C226.055 300.648 221.635 299.948 219.34 296.79C217.045 293.631 217.746 289.211 220.904 286.916Z" fill="#F7791F"/>
<path d="M238.098 305.632C239.686 302.066 243.864 300.462 247.431 302.049C250.997 303.637 252.601 307.815 251.013 311.382C249.425 314.948 245.247 316.552 241.681 314.964C238.114 313.376 236.511 309.198 238.098 305.632Z" fill="#F7791F"/>
<path d="M262.397 313.283C261.989 309.401 264.806 305.923 268.688 305.515C272.571 305.107 276.049 307.923 276.457 311.805C276.865 315.688 274.048 319.166 270.166 319.574C266.284 319.982 262.805 317.165 262.397 313.283Z" fill="#F7791F"/>
<path d="M287.152 307.709C284.858 304.551 285.558 300.13 288.716 297.836C291.874 295.541 296.295 296.241 298.589 299.4C300.884 302.558 300.184 306.978 297.026 309.273C293.867 311.567 289.447 310.867 287.152 307.709Z" fill="#F7791F"/>
<path d="M305.868 290.514C302.301 288.927 300.698 284.748 302.285 281.182C303.873 277.616 308.051 276.012 311.618 277.6C315.184 279.188 316.788 283.366 315.2 286.932C313.612 290.498 309.434 292.102 305.868 290.514Z" fill="#F7791F"/>
<path d="M313.529 266.306C309.646 266.714 306.168 263.898 305.76 260.016C305.352 256.133 308.169 252.655 312.051 252.247C315.933 251.839 319.411 254.656 319.819 258.538C320.227 262.42 317.411 265.898 313.529 266.306Z" fill="#F7791F"/>
<path d="M307.945 241.46C304.787 243.755 300.366 243.055 298.072 239.897C295.777 236.738 296.477 232.318 299.636 230.023C302.794 227.729 307.214 228.429 309.509 231.587C311.803 234.745 311.103 239.166 307.945 241.46Z" fill="#F7791F"/>
<path d="M290.75 222.745C289.162 226.311 284.984 227.915 281.418 226.327C277.852 224.74 276.248 220.561 277.836 216.995C279.423 213.429 283.602 211.825 287.168 213.413C290.734 215.001 292.338 219.179 290.75 222.745Z" fill="#F7791F"/>
<path d="M266.552 215.175C266.96 219.058 264.143 222.536 260.261 222.944C256.379 223.352 252.901 220.535 252.493 216.653C252.085 212.77 254.901 209.292 258.783 208.884C262.666 208.476 266.144 211.293 266.552 215.175Z" fill="#F7791F"/>
<path d="M235.404 197.825C237.191 201.049 236.026 205.112 232.802 206.9C229.577 208.687 225.514 207.522 223.727 204.297C221.939 201.073 223.104 197.01 226.329 195.222C229.554 193.435 233.617 194.6 235.404 197.825Z" fill="#F7791F"/>
<path d="M214.432 211.74C217.214 214.159 217.509 218.376 215.09 221.158C212.672 223.941 208.455 224.236 205.673 221.817C202.89 219.398 202.595 215.182 205.014 212.399C207.433 209.617 211.649 209.322 214.432 211.74Z" fill="#F7791F"/>
<path d="M199.512 232.001C202.954 233.322 204.673 237.183 203.352 240.625C202.03 244.067 198.169 245.787 194.727 244.465C191.285 243.144 189.566 239.283 190.887 235.841C192.208 232.399 196.07 230.68 199.512 232.001Z" fill="#F7791F"/>
<path d="M192.443 256.162C196.129 256.226 199.066 259.267 199.001 262.953C198.937 266.639 195.896 269.575 192.21 269.511C188.524 269.447 185.588 266.406 185.652 262.72C185.716 259.034 188.757 256.097 192.443 256.162Z" fill="#F7791F"/>
<path d="M194.072 281.266C197.558 280.066 201.357 281.919 202.557 285.405C203.758 288.891 201.905 292.69 198.419 293.89C194.933 295.091 191.134 293.238 189.933 289.752C188.733 286.266 190.586 282.467 194.072 281.266Z" fill="#F7791F"/>
<path d="M204.078 304.306C206.944 301.986 211.147 302.427 213.467 305.293C215.788 308.158 215.346 312.362 212.481 314.682C209.615 317.002 205.412 316.56 203.092 313.695C200.771 310.83 201.213 306.626 204.078 304.306Z" fill="#F7791F"/>
<path d="M221.428 322.518C223.327 319.358 227.429 318.336 230.589 320.234C233.749 322.133 234.772 326.235 232.873 329.395C230.974 332.555 226.873 333.578 223.712 331.679C220.552 329.78 219.53 325.679 221.428 322.518Z" fill="#F7791F"/>
<path d="M243.987 333.714C244.69 330.095 248.194 327.731 251.813 328.434C255.433 329.138 257.796 332.642 257.093 336.261C256.389 339.88 252.885 342.244 249.266 341.541C245.647 340.837 243.283 337.333 243.987 333.714Z" fill="#F7791F"/>
<path d="M269.032 336.542C268.455 332.9 270.94 329.481 274.581 328.904C278.223 328.327 281.642 330.812 282.219 334.453C282.796 338.095 280.311 341.514 276.67 342.091C273.029 342.668 269.609 340.183 269.032 336.542Z" fill="#F7791F"/>
<path d="M293.446 330.59C291.659 327.365 292.824 323.302 296.048 321.515C299.273 319.727 303.336 320.892 305.124 324.117C306.911 327.342 305.746 331.405 302.521 333.192C299.297 334.98 295.234 333.815 293.446 330.59Z" fill="#F7791F"/>
<path d="M314.382 316.648C311.6 314.229 311.305 310.012 313.724 307.23C316.142 304.447 320.359 304.152 323.141 306.571C325.924 308.99 326.219 313.206 323.8 315.989C321.381 318.772 317.165 319.066 314.382 316.648Z" fill="#F7791F"/>
<path d="M329.315 296.396C325.873 295.075 324.153 291.214 325.475 287.772C326.796 284.33 330.657 282.61 334.099 283.932C337.541 285.253 339.26 289.114 337.939 292.556C336.618 295.998 332.757 297.717 329.315 296.396Z" fill="#F7791F"/>
<path d="M336.443 272.278C332.756 272.214 329.82 269.174 329.884 265.487C329.949 261.801 332.989 258.865 336.676 258.929C340.362 258.993 343.298 262.034 343.234 265.72C343.169 269.407 340.129 272.343 336.443 272.278Z" fill="#F7791F"/>
<path d="M334.856 247.167C331.37 248.367 327.571 246.514 326.371 243.028C325.171 239.542 327.024 235.743 330.51 234.543C333.996 233.343 337.795 235.196 338.995 238.682C340.195 242.168 338.342 245.967 334.856 247.167Z" fill="#F7791F"/>
<path d="M324.748 224.091C321.883 226.411 317.679 225.969 315.359 223.104C313.039 220.239 313.48 216.035 316.346 213.715C319.211 211.395 323.415 211.837 325.735 214.702C328.055 217.567 327.613 221.771 324.748 224.091Z" fill="#F7791F"/>
<path d="M307.386 205.87C305.487 209.03 301.385 210.052 298.225 208.154C295.065 206.255 294.042 202.153 295.941 198.993C297.84 195.833 301.941 194.81 305.102 196.709C308.262 198.608 309.284 202.709 307.386 205.87Z" fill="#F7791F"/>
<path d="M284.864 194.701C284.16 198.32 280.656 200.683 277.037 199.98C273.418 199.276 271.054 195.772 271.758 192.153C272.461 188.534 275.965 186.17 279.584 186.874C283.204 187.577 285.567 191.082 284.864 194.701Z" fill="#F7791F"/>
<path d="M259.899 191.931C260.475 195.573 257.991 198.992 254.35 199.569C250.708 200.146 247.289 197.661 246.712 194.02C246.135 190.378 248.619 186.959 252.261 186.382C255.902 185.805 259.322 188.29 259.899 191.931Z" fill="#F7791F"/>
<path d="M226.696 176.052C228.272 179.144 227.043 182.927 223.951 184.503C220.859 186.078 217.075 184.849 215.5 181.757C213.925 178.665 215.154 174.882 218.246 173.306C221.338 171.731 225.121 172.96 226.696 176.052Z" fill="#F7791F"/>
<path d="M205.141 188.809C207.463 191.388 207.255 195.36 204.676 197.682C202.097 200.004 198.125 199.796 195.803 197.217C193.481 194.639 193.689 190.666 196.268 188.344C198.847 186.022 202.819 186.23 205.141 188.809Z" fill="#F7791F"/>
<path d="M187.639 206.713C190.549 208.603 191.376 212.494 189.486 215.405C187.596 218.315 183.705 219.142 180.795 217.252C177.884 215.362 177.057 211.471 178.947 208.561C180.837 205.65 184.728 204.823 187.639 206.713Z" fill="#F7791F"/>
<path d="M175.382 228.545C178.682 229.617 180.488 233.161 179.416 236.462C178.343 239.762 174.799 241.568 171.498 240.496C168.198 239.423 166.392 235.879 167.465 232.579C168.537 229.278 172.081 227.472 175.382 228.545Z" fill="#F7791F"/>
<path d="M169.213 252.852C172.678 253.033 175.34 255.99 175.159 259.455C174.977 262.92 172.021 265.582 168.556 265.4C165.09 265.219 162.428 262.262 162.61 258.797C162.792 255.332 165.748 252.67 169.213 252.852Z" fill="#F7791F"/>
<path d="M169.539 277.909C172.933 277.188 176.27 279.354 176.991 282.748C177.713 286.143 175.546 289.479 172.152 290.2C168.758 290.922 165.421 288.755 164.7 285.361C163.978 281.967 166.145 278.631 169.539 277.909Z" fill="#F7791F"/>
<path d="M176.279 302C179.371 300.424 183.154 301.654 184.73 304.745C186.305 307.837 185.076 311.621 181.984 313.196C178.892 314.771 175.109 313.542 173.533 310.45C171.958 307.359 173.187 303.575 176.279 302Z" fill="#F7791F"/>
<path d="M189.039 323.524C191.617 321.202 195.59 321.41 197.912 323.989C200.234 326.568 200.026 330.54 197.447 332.862C194.868 335.184 190.896 334.976 188.574 332.397C186.252 329.818 186.46 325.846 189.039 323.524Z" fill="#F7791F"/>
<path d="M206.949 341.015C208.838 338.105 212.73 337.277 215.64 339.167C218.55 341.057 219.377 344.948 217.487 347.859C215.597 350.769 211.706 351.596 208.796 349.706C205.886 347.816 205.059 343.925 206.949 341.015Z" fill="#F7791F"/>
<path d="M228.788 353.28C229.86 349.98 233.405 348.174 236.705 349.247C240.005 350.319 241.811 353.863 240.739 357.164C239.667 360.464 236.122 362.27 232.822 361.198C229.522 360.125 227.716 356.581 228.788 353.28Z" fill="#F7791F"/>
<path d="M253.069 359.485C253.25 356.02 256.207 353.358 259.672 353.539C263.137 353.721 265.799 356.677 265.617 360.143C265.436 363.608 262.48 366.27 259.014 366.088C255.549 365.907 252.887 362.95 253.069 359.485Z" fill="#F7791F"/>
<path d="M278.136 359.206C277.415 355.811 279.581 352.475 282.976 351.754C286.37 351.032 289.706 353.199 290.428 356.593C291.149 359.987 288.982 363.324 285.588 364.045C282.194 364.766 278.858 362.6 278.136 359.206Z" fill="#F7791F"/>
<path d="M302.217 352.419C300.641 349.327 301.871 345.544 304.963 343.969C308.054 342.393 311.838 343.623 313.413 346.714C314.989 349.806 313.759 353.59 310.667 355.165C307.576 356.74 303.792 355.511 302.217 352.419Z" fill="#F7791F"/>
<path d="M323.735 339.63C321.413 337.052 321.621 333.079 324.2 330.757C326.779 328.435 330.751 328.643 333.073 331.222C335.395 333.801 335.187 337.773 332.608 340.095C330.029 342.417 326.057 342.209 323.735 339.63Z" fill="#F7791F"/>
<path d="M341.224 321.71C338.313 319.82 337.486 315.929 339.376 313.019C341.266 310.109 345.157 309.282 348.068 311.172C350.978 313.062 351.805 316.953 349.915 319.863C348.025 322.773 344.134 323.6 341.224 321.71Z" fill="#F7791F"/>
<path d="M353.491 299.881C350.191 298.809 348.385 295.264 349.457 291.964C350.53 288.664 354.074 286.858 357.374 287.93C360.675 289.002 362.481 292.547 361.408 295.847C360.336 299.147 356.792 300.953 353.491 299.881Z" fill="#F7791F"/>
<path d="M359.702 275.629C356.237 275.448 353.575 272.491 353.757 269.026C353.938 265.561 356.895 262.899 360.36 263.081C363.825 263.262 366.487 266.219 366.305 269.684C366.124 273.149 363.168 275.811 359.702 275.629Z" fill="#F7791F"/>
<path d="M359.433 250.609C356.039 251.33 352.702 249.163 351.981 245.769C351.259 242.375 353.426 239.039 356.82 238.317C360.214 237.596 363.551 239.762 364.272 243.157C364.994 246.551 362.827 249.887 359.433 250.609Z" fill="#F7791F"/>
<path d="M352.636 226.481C349.545 228.057 345.761 226.827 344.186 223.736C342.61 220.644 343.84 216.86 346.931 215.285C350.023 213.71 353.807 214.939 355.382 218.031C356.957 221.123 355.728 224.906 352.636 226.481Z" fill="#F7791F"/>
<path d="M339.841 204.934C337.262 207.256 333.29 207.048 330.968 204.469C328.646 201.89 328.854 197.918 331.433 195.596C334.012 193.274 337.984 193.482 340.306 196.061C342.628 198.64 342.42 202.612 339.841 204.934Z" fill="#F7791F"/>
<path d="M321.919 187.435C320.029 190.346 316.138 191.173 313.228 189.283C310.318 187.393 309.491 183.502 311.38 180.591C313.27 177.681 317.162 176.854 320.072 178.744C322.982 180.634 323.809 184.525 321.919 187.435Z" fill="#F7791F"/>
<path d="M300.092 175.178C299.02 178.478 295.475 180.284 292.175 179.211C288.875 178.139 287.069 174.595 288.141 171.294C289.213 167.994 292.758 166.188 296.058 167.261C299.358 168.333 301.164 171.877 300.092 175.178Z" fill="#F7791F"/>
<path d="M275.847 168.996C275.665 172.461 272.709 175.123 269.243 174.942C265.778 174.76 263.116 171.804 263.298 168.338C263.479 164.873 266.436 162.211 269.901 162.393C273.366 162.574 276.028 165.531 275.847 168.996Z" fill="#F7791F"/>
<path d="M250.836 169.312C251.557 172.706 249.39 176.043 245.996 176.764C242.602 177.486 239.266 175.319 238.544 171.925C237.823 168.531 239.989 165.194 243.384 164.473C246.778 163.751 250.114 165.918 250.836 169.312Z" fill="#F7791F"/>
<path d="M215.653 155.258C217.13 158.157 215.977 161.704 213.079 163.181C210.18 164.658 206.633 163.505 205.156 160.607C203.679 157.708 204.832 154.161 207.73 152.684C210.629 151.207 214.176 152.36 215.653 155.258Z" fill="#F7791F"/>
<path d="M194.041 167.777C196.088 170.305 195.698 174.014 193.17 176.062C190.642 178.109 186.933 177.719 184.886 175.191C182.838 172.663 183.228 168.954 185.756 166.906C188.284 164.859 191.994 165.249 194.041 167.777Z" fill="#F7791F"/>
<path d="M175.513 184.516C178.041 186.564 178.431 190.273 176.384 192.801C174.337 195.329 170.628 195.719 168.099 193.672C165.571 191.624 165.181 187.915 167.229 185.387C169.276 182.859 172.985 182.469 175.513 184.516Z" fill="#F7791F"/>
<path d="M160.88 204.744C163.778 206.221 164.931 209.768 163.454 212.667C161.977 215.565 158.43 216.718 155.531 215.241C152.633 213.764 151.48 210.217 152.957 207.318C154.434 204.42 157.981 203.267 160.88 204.744Z" fill="#F7791F"/>
<path d="M150.78 227.577C153.922 228.419 155.787 231.649 154.945 234.791C154.103 237.933 150.873 239.798 147.731 238.956C144.588 238.114 142.724 234.884 143.566 231.742C144.408 228.6 147.637 226.735 150.78 227.577Z" fill="#F7791F"/>
<path d="M145.655 252.016C148.903 252.186 151.399 254.958 151.229 258.207C151.058 261.455 148.287 263.951 145.038 263.78C141.79 263.61 139.294 260.839 139.464 257.59C139.634 254.341 142.406 251.846 145.655 252.016Z" fill="#F7791F"/>
<path d="M145.729 276.994C148.942 276.485 151.959 278.677 152.468 281.89C152.977 285.103 150.785 288.121 147.572 288.63C144.359 289.138 141.341 286.946 140.832 283.733C140.324 280.52 142.516 277.503 145.729 276.994Z" fill="#F7791F"/>
<path d="M150.997 301.396C154.034 300.231 157.441 301.748 158.607 304.785C159.772 307.822 158.256 311.229 155.218 312.395C152.181 313.56 148.774 312.043 147.609 309.006C146.443 305.969 147.96 302.562 150.997 301.396Z" fill="#F7791F"/>
<path d="M161.154 324.177C163.882 322.405 167.53 323.181 169.302 325.909C171.074 328.637 170.298 332.285 167.57 334.057C164.842 335.829 161.193 335.053 159.422 332.325C157.65 329.597 158.425 325.949 161.154 324.177Z" fill="#F7791F"/>
<path d="M175.857 344.336C178.158 342.035 181.887 342.035 184.188 344.336C186.488 346.636 186.488 350.365 184.188 352.666C181.887 354.966 178.158 354.966 175.857 352.666C173.557 350.365 173.557 346.636 175.857 344.336Z" fill="#F7791F"/>
<path d="M194.44 360.998C196.212 358.27 199.86 357.494 202.588 359.266C205.317 361.038 206.092 364.686 204.32 367.414C202.549 370.142 198.9 370.918 196.172 369.146C193.444 367.374 192.668 363.726 194.44 360.998Z" fill="#F7791F"/>
<path d="M216.09 373.436C217.256 370.399 220.663 368.882 223.7 370.048C226.737 371.214 228.254 374.621 227.088 377.658C225.922 380.695 222.515 382.212 219.478 381.046C216.441 379.88 214.924 376.473 216.09 373.436Z" fill="#F7791F"/>
<path d="M239.86 381.106C240.369 377.893 243.386 375.701 246.599 376.21C249.812 376.719 252.005 379.736 251.496 382.949C250.987 386.162 247.97 388.354 244.757 387.845C241.543 387.336 239.351 384.319 239.86 381.106Z" fill="#F7791F"/>
<path d="M264.712 383.673C264.542 380.424 267.038 377.653 270.286 377.482C273.535 377.312 276.306 379.808 276.477 383.056C276.647 386.305 274.151 389.077 270.903 389.247C267.654 389.417 264.882 386.922 264.712 383.673Z" fill="#F7791F"/>
<path d="M289.56 381.024C288.718 377.882 290.583 374.652 293.725 373.81C296.867 372.968 300.097 374.833 300.939 377.975C301.781 381.118 299.916 384.347 296.774 385.189C293.632 386.031 290.402 384.167 289.56 381.024Z" fill="#F7791F"/>
<path d="M313.263 373.245C311.786 370.346 312.939 366.799 315.837 365.323C318.736 363.846 322.283 364.998 323.76 367.897C325.237 370.795 324.084 374.342 321.186 375.819C318.287 377.296 314.74 376.144 313.263 373.245Z" fill="#F7791F"/>
<path d="M334.84 360.706C332.793 358.178 333.183 354.469 335.711 352.422C338.239 350.374 341.948 350.764 343.996 353.292C346.043 355.82 345.653 359.529 343.125 361.577C340.597 363.624 336.888 363.234 334.84 360.706Z" fill="#F7791F"/>
<path d="M353.348 343.955C350.82 341.908 350.43 338.199 352.477 335.671C354.525 333.143 358.234 332.753 360.762 334.8C363.29 336.847 363.68 340.556 361.633 343.085C359.585 345.613 355.876 346.003 353.348 343.955Z" fill="#F7791F"/>
<path d="M367.978 323.725C365.079 322.248 363.927 318.701 365.403 315.803C366.88 312.904 370.427 311.752 373.326 313.229C376.224 314.705 377.377 318.252 375.9 321.151C374.423 324.05 370.876 325.202 367.978 323.725Z" fill="#F7791F"/>
<path d="M378.09 300.9C374.947 300.058 373.083 296.828 373.924 293.685C374.766 290.543 377.996 288.678 381.139 289.52C384.281 290.362 386.146 293.592 385.304 296.735C384.462 299.877 381.232 301.742 378.09 300.9Z" fill="#F7791F"/>
<path d="M383.242 276.476C379.993 276.306 377.498 273.534 377.668 270.286C377.838 267.037 380.61 264.542 383.859 264.712C387.107 264.882 389.603 267.654 389.433 270.902C389.262 274.151 386.491 276.646 383.242 276.476Z" fill="#F7791F"/>
<path d="M383.21 251.522C379.997 252.031 376.979 249.839 376.471 246.626C375.962 243.413 378.154 240.396 381.367 239.887C384.58 239.378 387.597 241.57 388.106 244.783C388.615 247.996 386.423 251.014 383.21 251.522Z" fill="#F7791F"/>
<path d="M377.967 227.113C374.93 228.279 371.523 226.762 370.357 223.725C369.191 220.688 370.708 217.281 373.745 216.115C376.782 214.949 380.189 216.466 381.355 219.503C382.521 222.54 381.004 225.947 377.967 227.113Z" fill="#F7791F"/>
<path d="M367.743 204.315C365.015 206.087 361.367 205.312 359.595 202.583C357.823 199.855 358.599 196.207 361.327 194.435C364.055 192.663 367.703 193.439 369.475 196.167C371.247 198.895 370.471 202.544 367.743 204.315Z" fill="#F7791F"/>
<path d="M353.012 184.141C350.712 186.441 346.982 186.441 344.682 184.141C342.381 181.841 342.381 178.111 344.682 175.811C346.982 173.51 350.712 173.51 353.012 175.811C355.312 178.111 355.312 181.841 353.012 184.141Z" fill="#F7791F"/>
<path d="M334.417 167.471C332.645 170.2 328.997 170.975 326.269 169.203C323.541 167.432 322.765 163.784 324.537 161.055C326.309 158.327 329.957 157.552 332.685 159.323C335.413 161.095 336.189 164.743 334.417 167.471Z" fill="#F7791F"/>
<path d="M312.771 155.036C311.606 158.073 308.198 159.59 305.161 158.424C302.124 157.258 300.607 153.851 301.773 150.814C302.939 147.777 306.346 146.26 309.383 147.426C312.42 148.592 313.937 151.999 312.771 155.036Z" fill="#F7791F"/>
<path d="M289.021 147.377C288.512 150.59 285.495 152.782 282.282 152.273C279.069 151.765 276.877 148.747 277.385 145.534C277.894 142.321 280.912 140.129 284.125 140.638C287.338 141.147 289.53 144.164 289.021 147.377Z" fill="#F7791F"/>
<path d="M264.204 144.83C264.374 148.079 261.878 150.851 258.63 151.021C255.381 151.191 252.61 148.696 252.439 145.447C252.269 142.198 254.765 139.427 258.013 139.256C261.262 139.086 264.033 141.582 264.204 144.83Z" fill="#F7791F"/>
<path d="M239.404 147.507C240.246 150.649 238.382 153.879 235.239 154.721C232.097 155.563 228.867 153.698 228.025 150.556C227.183 147.414 229.048 144.184 232.19 143.342C235.332 142.5 238.562 144.365 239.404 147.507Z" fill="#F7791F"/>
<path d="M202.349 135.518C203.775 138.199 202.757 141.527 200.076 142.953C197.395 144.378 194.066 143.361 192.641 140.68C191.216 137.999 192.233 134.67 194.914 133.245C197.595 131.819 200.924 132.837 202.349 135.518Z" fill="#F7791F"/>
<path d="M180.92 148.25C182.79 150.643 182.365 154.098 179.973 155.967C177.58 157.836 174.125 157.412 172.256 155.02C170.387 152.627 170.811 149.172 173.203 147.303C175.596 145.433 179.051 145.858 180.92 148.25Z" fill="#F7791F"/>
<path d="M162.034 164.51C164.291 166.542 164.473 170.018 162.441 172.274C160.409 174.531 156.933 174.713 154.677 172.681C152.421 170.65 152.238 167.173 154.27 164.917C156.302 162.661 159.778 162.478 162.034 164.51Z" fill="#F7791F"/>
<path d="M146.265 183.803C148.84 185.412 149.623 188.804 148.014 191.379C146.405 193.954 143.013 194.737 140.438 193.128C137.863 191.519 137.08 188.127 138.689 185.552C140.298 182.977 143.69 182.194 146.265 183.803Z" fill="#F7791F"/>
<path d="M134.091 205.543C136.907 206.681 138.267 209.885 137.129 212.7C135.992 215.515 132.788 216.875 129.973 215.738C127.157 214.601 125.797 211.396 126.935 208.581C128.072 205.766 131.276 204.406 134.091 205.543Z" fill="#F7791F"/>
<path d="M125.884 229.07C128.854 229.701 130.75 232.621 130.118 235.591C129.487 238.561 126.568 240.456 123.598 239.825C120.628 239.194 118.732 236.275 119.363 233.305C119.995 230.335 122.914 228.439 125.884 229.07Z" fill="#F7791F"/>
<path d="M121.891 253.669C124.926 253.775 127.3 256.32 127.194 259.355C127.088 262.389 124.542 264.763 121.508 264.657C118.473 264.551 116.099 262.005 116.205 258.971C116.311 255.937 118.857 253.563 121.891 253.669Z" fill="#F7791F"/>
<path d="M122.167 278.38C125.174 277.957 127.954 280.052 128.376 283.059C128.799 286.066 126.704 288.846 123.697 289.268C120.69 289.691 117.91 287.596 117.488 284.589C117.065 281.583 119.16 278.803 122.167 278.38Z" fill="#F7791F"/>
<path d="M126.836 302.866C129.724 301.928 132.825 303.508 133.763 306.396C134.702 309.284 133.121 312.385 130.234 313.323C127.346 314.262 124.245 312.681 123.306 309.794C122.368 306.906 123.948 303.805 126.836 302.866Z" fill="#F7791F"/>
<path d="M135.596 326.133C138.276 324.708 141.605 325.726 143.031 328.407C144.456 331.087 143.438 334.416 140.758 335.842C138.077 337.267 134.748 336.249 133.322 333.569C131.897 330.888 132.915 327.559 135.596 326.133Z" fill="#F7791F"/>
<path d="M148.275 347.523C150.668 345.654 154.123 346.078 155.992 348.47C157.862 350.863 157.437 354.318 155.045 356.187C152.652 358.057 149.197 357.632 147.328 355.24C145.459 352.847 145.883 349.392 148.275 347.523Z" fill="#F7791F"/>
<path d="M164.49 366.385C166.522 364.129 169.998 363.947 172.254 365.978C174.51 368.01 174.693 371.486 172.661 373.742C170.629 375.999 167.153 376.181 164.897 374.149C162.64 372.118 162.458 368.641 164.49 366.385Z" fill="#F7791F"/>
<path d="M183.747 382.146C185.356 379.572 188.747 378.789 191.322 380.398C193.897 382.006 194.68 385.398 193.071 387.973C191.462 390.548 188.07 391.331 185.496 389.722C182.921 388.113 182.138 384.721 183.747 382.146Z" fill="#F7791F"/>
<path d="M205.46 394.329C206.598 391.513 209.802 390.153 212.617 391.291C215.432 392.428 216.792 395.632 215.655 398.447C214.518 401.263 211.313 402.623 208.498 401.485C205.683 400.348 204.323 397.144 205.46 394.329Z" fill="#F7791F"/>
<path d="M228.972 402.561C229.603 399.591 232.522 397.695 235.492 398.326C238.462 398.958 240.358 401.877 239.726 404.847C239.095 407.817 236.176 409.713 233.206 409.081C230.236 408.45 228.34 405.531 228.972 402.561Z" fill="#F7791F"/>
<path d="M253.566 406.593C253.671 403.559 256.217 401.185 259.252 401.291C262.286 401.397 264.66 403.943 264.554 406.977C264.448 410.012 261.902 412.386 258.868 412.28C255.834 412.174 253.46 409.628 253.566 406.593Z" fill="#F7791F"/>
<path d="M278.495 406.304C278.073 403.297 280.167 400.517 283.174 400.095C286.181 399.672 288.961 401.767 289.383 404.774C289.806 407.78 287.711 410.56 284.704 410.983C281.698 411.405 278.918 409.31 278.495 406.304Z" fill="#F7791F"/>
<path d="M303.003 401.701C302.065 398.813 303.645 395.711 306.533 394.773C309.42 393.835 312.522 395.415 313.46 398.303C314.398 401.191 312.818 404.292 309.93 405.23C307.043 406.169 303.941 404.588 303.003 401.701Z" fill="#F7791F"/>
<path d="M326.249 392.875C324.823 390.194 325.841 386.865 328.522 385.44C331.202 384.015 334.531 385.032 335.957 387.713C337.382 390.394 336.364 393.723 333.684 395.148C331.003 396.574 327.674 395.556 326.249 392.875Z" fill="#F7791F"/>
<path d="M347.621 380.144C345.752 377.752 346.176 374.297 348.569 372.427C350.961 370.558 354.416 370.982 356.286 373.375C358.155 375.767 357.731 379.222 355.338 381.092C352.946 382.961 349.491 382.537 347.621 380.144Z" fill="#F7791F"/>
<path d="M366.472 363.895C364.216 361.863 364.033 358.387 366.065 356.13C368.097 353.874 371.573 353.692 373.829 355.723C376.086 357.755 376.268 361.231 374.236 363.488C372.205 365.744 368.728 365.926 366.472 363.895Z" fill="#F7791F"/>
<path d="M382.228 344.62C379.653 343.011 378.87 339.619 380.479 337.044C382.088 334.47 385.479 333.686 388.054 335.295C390.629 336.904 391.412 340.296 389.803 342.871C388.194 345.446 384.803 346.229 382.228 344.62Z" fill="#F7791F"/>
<path d="M394.41 322.906C391.595 321.769 390.235 318.565 391.372 315.749C392.509 312.934 395.713 311.574 398.529 312.712C401.344 313.849 402.704 317.053 401.567 319.868C400.429 322.683 397.225 324.044 394.41 322.906Z" fill="#F7791F"/>
<path d="M402.648 299.413C399.678 298.782 397.782 295.862 398.413 292.892C399.045 289.922 401.964 288.027 404.934 288.658C407.904 289.289 409.8 292.208 409.168 295.178C408.537 298.148 405.618 300.044 402.648 299.413Z" fill="#F7791F"/>
<path d="M406.692 274.854C403.657 274.748 401.284 272.202 401.389 269.168C401.495 266.133 404.041 263.759 407.076 263.865C410.11 263.971 412.484 266.517 412.378 269.552C412.272 272.586 409.726 274.96 406.692 274.854Z" fill="#F7791F"/>
<path d="M406.419 249.976C403.412 250.398 400.632 248.303 400.21 245.297C399.787 242.29 401.882 239.51 404.889 239.087C407.895 238.665 410.675 240.76 411.098 243.766C411.52 246.773 409.426 249.553 406.419 249.976Z" fill="#F7791F"/>
<path d="M401.837 225.534C398.949 226.472 395.848 224.892 394.91 222.004C393.971 219.116 395.552 216.015 398.439 215.077C401.327 214.138 404.429 215.719 405.367 218.606C406.305 221.494 404.725 224.595 401.837 225.534Z" fill="#F7791F"/>
<path d="M392.99 202.222C390.309 203.648 386.98 202.63 385.555 199.949C384.13 197.268 385.147 193.939 387.828 192.514C390.509 191.089 393.838 192.106 395.263 194.787C396.689 197.468 395.671 200.797 392.99 202.222Z" fill="#F7791F"/>
<path d="M380.242 180.798C377.85 182.667 374.395 182.243 372.526 179.851C370.656 177.458 371.081 174.003 373.473 172.134C375.866 170.264 379.321 170.689 381.19 173.081C383.059 175.474 382.635 178.929 380.242 180.798Z" fill="#F7791F"/>
<path d="M363.982 161.912C361.95 164.169 358.474 164.351 356.217 162.319C353.961 160.288 353.779 156.811 355.81 154.555C357.842 152.299 361.318 152.117 363.575 154.148C365.831 156.18 366.013 159.656 363.982 161.912Z" fill="#F7791F"/>
<path d="M344.701 146.139C343.092 148.714 339.7 149.497 337.126 147.888C334.551 146.279 333.768 142.887 335.377 140.312C336.986 137.737 340.377 136.954 342.952 138.563C345.527 140.172 346.31 143.564 344.701 146.139Z" fill="#F7791F"/>
<path d="M322.987 133.957C321.85 136.772 318.646 138.132 315.831 136.995C313.015 135.857 311.655 132.653 312.793 129.838C313.93 127.023 317.134 125.663 319.95 126.8C322.765 127.938 324.125 131.142 322.987 133.957Z" fill="#F7791F"/>
<path d="M299.5 125.737C298.869 128.706 295.949 130.602 292.979 129.971C290.01 129.34 288.114 126.42 288.745 123.451C289.376 120.481 292.296 118.585 295.265 119.216C298.235 119.847 300.131 122.767 299.5 125.737Z" fill="#F7791F"/>
<path d="M274.952 121.728C274.846 124.762 272.301 127.136 269.266 127.03C266.232 126.924 263.858 124.378 263.964 121.344C264.07 118.309 266.616 115.935 269.65 116.041C272.684 116.147 275.058 118.693 274.952 121.728Z" fill="#F7791F"/>
<path d="M250.091 122.052C250.513 125.059 248.418 127.839 245.412 128.261C242.405 128.684 239.625 126.589 239.202 123.582C238.78 120.575 240.875 117.795 243.881 117.373C246.888 116.95 249.668 119.045 250.091 122.052Z" fill="#F7791F"/>
<path d="M225.67 126.699C226.608 129.587 225.028 132.689 222.14 133.627C219.253 134.565 216.151 132.985 215.213 130.097C214.275 127.21 215.855 124.108 218.743 123.17C221.63 122.232 224.732 123.812 225.67 126.699Z" fill="#F7791F"/>
<path d="M186.859 116.949C188.25 119.401 187.391 122.517 184.938 123.908C182.486 125.3 179.371 124.44 177.979 121.988C176.588 119.536 177.448 116.42 179.9 115.028C182.352 113.637 185.468 114.497 186.859 116.949Z" fill="#F7791F"/>
<path d="M165.746 130.12C167.487 132.337 167.101 135.547 164.884 137.288C162.667 139.029 159.457 138.643 157.716 136.426C155.975 134.208 156.361 130.999 158.578 129.258C160.795 127.517 164.005 127.903 165.746 130.12Z" fill="#F7791F"/>
<path d="M146.841 146.289C148.894 148.222 148.99 151.453 147.057 153.505C145.124 155.558 141.893 155.654 139.841 153.721C137.789 151.788 137.692 148.558 139.625 146.505C141.558 144.453 144.789 144.356 146.841 146.289Z" fill="#F7791F"/>
<path d="M130.567 165.095C132.885 166.701 133.462 169.881 131.857 172.199C130.251 174.516 127.071 175.094 124.753 173.488C122.436 171.882 121.858 168.702 123.464 166.385C125.07 164.067 128.25 163.49 130.567 165.095Z" fill="#F7791F"/>
<path d="M117.061 185.529C119.592 186.771 120.637 189.83 119.395 192.361C118.153 194.891 115.094 195.936 112.563 194.694C110.032 193.452 108.987 190.393 110.229 187.862C111.472 185.331 114.53 184.286 117.061 185.529Z" fill="#F7791F"/>
<path d="M107.039 208.211C109.727 209.062 111.216 211.931 110.364 214.619C109.513 217.307 106.644 218.796 103.957 217.944C101.269 217.093 99.7799 214.224 100.631 211.537C101.482 208.849 104.351 207.36 107.039 208.211Z" fill="#F7791F"/>
<path d="M100.536 232.147C103.321 232.588 105.221 235.203 104.78 237.988C104.339 240.773 101.724 242.672 98.9392 242.231C96.1545 241.79 94.2546 239.175 94.6957 236.391C95.1367 233.606 97.7517 231.706 100.536 232.147Z" fill="#F7791F"/>
<path d="M97.699 256.803C100.518 256.824 102.787 259.126 102.766 261.945C102.744 264.765 100.442 267.033 97.6226 267.012C94.8033 266.991 92.5349 264.688 92.556 261.869C92.5771 259.05 94.8797 256.781 97.699 256.803Z" fill="#F7791F"/>
<path d="M98.5901 281.626C101.381 281.227 103.967 283.166 104.367 285.957C104.766 288.748 102.827 291.334 100.036 291.733C97.2453 292.133 94.6591 290.194 94.2597 287.403C93.8604 284.612 95.7992 282.026 98.5901 281.626Z" fill="#F7791F"/>
<path d="M103.19 306.064C105.89 305.253 108.736 306.785 109.547 309.485C110.358 312.185 108.827 315.031 106.126 315.842C103.426 316.653 100.58 315.122 99.7688 312.421C98.958 309.721 100.49 306.875 103.19 306.064Z" fill="#F7791F"/>
<path d="M111.359 329.474C113.908 328.27 116.951 329.36 118.155 331.909C119.36 334.459 118.269 337.501 115.72 338.706C113.171 339.91 110.128 338.82 108.924 336.27C107.719 333.721 108.81 330.678 111.359 329.474Z" fill="#F7791F"/>
<path d="M122.631 351.443C124.972 349.872 128.144 350.497 129.714 352.838C131.285 355.179 130.66 358.351 128.319 359.922C125.978 361.492 122.806 360.868 121.236 358.526C119.665 356.185 120.29 353.014 122.631 351.443Z" fill="#F7791F"/>
<path d="M137.17 371.43C139.251 369.527 142.48 369.672 144.382 371.753C146.284 373.834 146.139 377.063 144.058 378.966C141.977 380.868 138.748 380.723 136.846 378.642C134.944 376.561 135.089 373.332 137.17 371.43Z" fill="#F7791F"/>
<path d="M154.556 389.024C156.33 386.833 159.544 386.495 161.736 388.269C163.927 390.044 164.264 393.258 162.49 395.449C160.716 397.64 157.501 397.978 155.31 396.204C153.119 394.43 152.781 391.215 154.556 389.024Z" fill="#F7791F"/>
<path d="M174.4 403.833C175.828 401.402 178.956 400.589 181.387 402.017C183.818 403.445 184.631 406.573 183.203 409.004C181.775 411.435 178.647 412.248 176.216 410.82C173.785 409.392 172.972 406.264 174.4 403.833Z" fill="#F7791F"/>
<path d="M196.259 415.526C197.309 412.909 200.281 411.639 202.898 412.689C205.514 413.738 206.785 416.71 205.735 419.327C204.686 421.944 201.713 423.214 199.097 422.165C196.48 421.115 195.21 418.143 196.259 415.526Z" fill="#F7791F"/>
<path d="M219.646 423.842C220.293 421.098 223.043 419.399 225.787 420.047C228.531 420.695 230.23 423.444 229.582 426.188C228.934 428.932 226.185 430.631 223.441 429.984C220.697 429.336 218.998 426.586 219.646 423.842Z" fill="#F7791F"/>
<path d="M244.036 428.595C244.268 425.785 246.734 423.695 249.543 423.927C252.353 424.159 254.443 426.624 254.212 429.434C253.98 432.244 251.514 434.334 248.704 434.102C245.895 433.87 243.805 431.405 244.036 428.595Z" fill="#F7791F"/>
<path d="M268.887 429.679C268.697 426.866 270.824 424.432 273.637 424.242C276.449 424.052 278.884 426.179 279.073 428.992C279.263 431.805 277.136 434.239 274.323 434.429C271.51 434.618 269.076 432.492 268.887 429.679Z" fill="#F7791F"/>
<path d="M293.641 427.069C293.035 424.316 294.775 421.592 297.528 420.985C300.281 420.378 303.005 422.118 303.612 424.871C304.219 427.625 302.479 430.349 299.725 430.955C296.972 431.562 294.248 429.822 293.641 427.069Z" fill="#F7791F"/>
<path d="M317.748 420.824C316.737 418.192 318.052 415.239 320.684 414.229C323.316 413.218 326.269 414.533 327.279 417.165C328.29 419.797 326.975 422.75 324.343 423.761C321.711 424.771 318.758 423.456 317.748 420.824Z" fill="#F7791F"/>
<path d="M340.404 410.967C339.012 408.514 339.872 405.399 342.325 404.007C344.777 402.616 347.892 403.476 349.284 405.928C350.675 408.38 349.815 411.496 347.363 412.887C344.911 414.279 341.795 413.419 340.404 410.967Z" fill="#F7791F"/>
<path d="M361.367 397.834C359.626 395.616 360.012 392.407 362.229 390.666C364.446 388.925 367.655 389.31 369.397 391.528C371.138 393.745 370.752 396.954 368.535 398.696C366.317 400.437 363.108 400.051 361.367 397.834Z" fill="#F7791F"/>
<path d="M380.169 381.719C378.116 379.786 378.02 376.555 379.953 374.502C381.886 372.45 385.117 372.353 387.169 374.286C389.221 376.22 389.318 379.45 387.385 381.503C385.452 383.555 382.221 383.652 380.169 381.719Z" fill="#F7791F"/>
<path d="M396.389 362.982C394.072 361.376 393.494 358.196 395.1 355.878C396.706 353.561 399.886 352.984 402.203 354.589C404.521 356.195 405.098 359.375 403.493 361.693C401.887 364.01 398.707 364.587 396.389 362.982Z" fill="#F7791F"/>
<path d="M409.666 342.041C407.135 340.799 406.09 337.74 407.332 335.209C408.575 332.678 411.633 331.634 414.164 332.876C416.695 334.118 417.74 337.177 416.498 339.708C415.256 342.239 412.197 343.284 409.666 342.041Z" fill="#F7791F"/>
<path d="M419.702 319.365C417.014 318.514 415.526 315.645 416.377 312.957C417.228 310.269 420.097 308.78 422.785 309.632C425.472 310.483 426.961 313.352 426.11 316.04C425.259 318.727 422.39 320.216 419.702 319.365Z" fill="#F7791F"/>
<path d="M426.274 295.46C423.489 295.019 421.59 292.404 422.031 289.619C422.472 286.834 425.087 284.935 427.871 285.376C430.656 285.817 432.556 288.432 432.115 291.216C431.674 294.001 429.059 295.901 426.274 295.46Z" fill="#F7791F"/>
<path d="M429.235 270.859C426.416 270.838 424.147 268.536 424.168 265.716C424.189 262.897 426.492 260.629 429.311 260.65C432.13 260.671 434.399 262.973 434.378 265.793C434.357 268.612 432.054 270.88 429.235 270.859Z" fill="#F7791F"/>
<path d="M428.518 246.113C425.727 246.513 423.141 244.574 422.742 241.783C422.342 238.992 424.281 236.406 427.072 236.006C429.863 235.607 432.449 237.546 432.848 240.337C433.248 243.128 431.309 245.714 428.518 246.113Z" fill="#F7791F"/>
<path d="M424.14 221.774C421.44 222.585 418.593 221.053 417.782 218.353C416.972 215.653 418.503 212.807 421.204 211.996C423.904 211.185 426.75 212.717 427.561 215.417C428.372 218.117 426.84 220.963 424.14 221.774Z" fill="#F7791F"/>
<path d="M416.066 198.327C413.517 199.532 410.474 198.441 409.27 195.892C408.065 193.343 409.156 190.3 411.705 189.096C414.254 187.892 417.297 188.982 418.501 191.531C419.706 194.08 418.615 197.123 416.066 198.327Z" fill="#F7791F"/>
<path d="M404.477 176.296C402.136 177.867 398.965 177.243 397.394 174.901C395.823 172.56 396.448 169.389 398.789 167.818C401.13 166.247 404.302 166.872 405.872 169.213C407.443 171.554 406.818 174.726 404.477 176.296Z" fill="#F7791F"/>
<path d="M389.764 156.232C387.683 158.134 384.454 157.989 382.552 155.908C380.65 153.827 380.795 150.598 382.876 148.696C384.957 146.794 388.186 146.939 390.088 149.02C391.99 151.101 391.845 154.33 389.764 156.232Z" fill="#F7791F"/>
<path d="M372.437 138.513C370.663 140.704 367.448 141.042 365.257 139.268C363.066 137.493 362.728 134.279 364.503 132.088C366.277 129.897 369.491 129.559 371.682 131.333C373.874 133.107 374.211 136.322 372.437 138.513Z" fill="#F7791F"/>
<path d="M352.506 123.68C351.078 126.111 347.95 126.924 345.519 125.496C343.088 124.068 342.274 120.94 343.702 118.509C345.13 116.078 348.258 115.265 350.69 116.693C353.121 118.12 353.934 121.249 352.506 123.68Z" fill="#F7791F"/>
<path d="M330.611 111.989C329.562 114.605 326.589 115.876 323.973 114.826C321.356 113.777 320.086 110.804 321.135 108.188C322.185 105.571 325.157 104.301 327.774 105.35C330.39 106.4 331.661 109.372 330.611 111.989Z" fill="#F7791F"/>
<path d="M307.242 103.701C306.594 106.445 303.845 108.144 301.101 107.496C298.357 106.848 296.658 104.099 297.305 101.355C297.953 98.6107 300.703 96.9115 303.447 97.5594C306.191 98.2073 307.89 100.957 307.242 103.701Z" fill="#F7791F"/>
<path d="M282.921 99.0015C282.689 101.811 280.223 103.901 277.413 103.67C274.604 103.438 272.514 100.972 272.745 98.1624C272.977 95.3526 275.443 93.2626 278.253 93.4943C281.062 93.726 283.152 96.1917 282.921 99.0015Z" fill="#F7791F"/>
<path d="M258.19 97.9955C258.38 100.808 256.253 103.243 253.44 103.432C250.627 103.622 248.193 101.495 248.004 98.6823C247.814 95.8693 249.941 93.4352 252.754 93.2456C255.567 93.0559 258.001 95.1825 258.19 97.9955Z" fill="#F7791F"/>
<path d="M233.603 100.705C234.21 103.459 232.47 106.183 229.717 106.789C226.963 107.396 224.24 105.656 223.633 102.903C223.026 100.149 224.766 97.4256 227.519 96.8188C230.273 96.212 232.997 97.9521 233.603 100.705Z" fill="#F7791F"/>
<path d="M209.709 107.071C210.719 109.703 209.405 112.655 206.773 113.666C204.141 114.676 201.188 113.362 200.177 110.729C199.167 108.097 200.482 105.145 203.114 104.134C205.746 103.124 208.699 104.438 209.709 107.071Z" fill="#F7791F"/>
<path d="M169.263 99.6891C170.623 101.908 169.926 104.809 167.707 106.169C165.488 107.529 162.587 106.832 161.227 104.613C159.867 102.394 160.564 99.4932 162.783 98.1334C165.002 96.7736 167.903 97.4701 169.263 99.6891Z" fill="#F7791F"/>
<path d="M148.545 113.4C150.183 115.423 149.871 118.39 147.848 120.028C145.826 121.666 142.859 121.354 141.221 119.331C139.583 117.309 139.895 114.342 141.917 112.704C143.94 111.066 146.907 111.378 148.545 113.4Z" fill="#F7791F"/>
<path d="M129.774 129.607C131.662 131.398 131.74 134.381 129.949 136.269C128.157 138.157 125.175 138.235 123.287 136.443C121.399 134.652 121.321 131.669 123.112 129.781C124.904 127.894 127.886 127.816 129.774 129.607Z" fill="#F7791F"/>
<path d="M113.337 148.178C115.442 149.708 115.909 152.655 114.379 154.76C112.85 156.866 109.903 157.332 107.797 155.803C105.692 154.273 105.225 151.326 106.755 149.221C108.284 147.115 111.231 146.648 113.337 148.178Z" fill="#F7791F"/>
<path d="M99.4877 168.737C101.775 169.978 102.622 172.839 101.38 175.126C100.139 177.413 97.2778 178.261 94.9907 177.019C92.7036 175.777 91.8562 172.916 93.098 170.629C94.3398 168.342 97.2006 167.495 99.4877 168.737Z" fill="#F7791F"/>
<path d="M88.4639 190.931C90.8936 191.864 92.1071 194.589 91.1745 197.019C90.2418 199.449 87.5161 200.662 85.0865 199.729C82.6569 198.797 81.4433 196.071 82.376 193.641C83.3086 191.212 86.0343 189.998 88.4639 190.931Z" fill="#F7791F"/>
<path d="M80.4541 214.381C82.9847 214.989 84.5436 217.533 83.9361 220.064C83.3286 222.594 80.7846 224.153 78.254 223.545C75.7234 222.938 74.1645 220.394 74.772 217.863C75.3796 215.333 77.9235 213.774 80.4541 214.381Z" fill="#F7791F"/>
<path d="M75.5953 238.687C78.1835 238.959 80.0612 241.277 79.7891 243.866C79.5171 246.454 77.1984 248.332 74.6102 248.06C72.0219 247.787 70.1443 245.469 70.4163 242.881C70.6883 240.292 73.007 238.415 75.5953 238.687Z" fill="#F7791F"/>
<path d="M73.9706 263.431C76.5722 263.363 78.7364 265.416 78.8046 268.018C78.8727 270.62 76.8189 272.784 74.2173 272.852C71.6157 272.92 69.4514 270.866 69.3833 268.265C69.3152 265.663 71.369 263.499 73.9706 263.431Z" fill="#F7791F"/>
<path d="M75.6078 288.191C78.1783 287.783 80.5921 289.537 80.9992 292.108C81.4063 294.678 79.6526 297.092 77.0821 297.499C74.5117 297.906 72.0979 296.152 71.6907 293.582C71.2836 291.011 73.0373 288.598 75.6078 288.191Z" fill="#F7791F"/>
<path d="M80.479 312.542C82.9743 311.803 85.5964 313.227 86.3355 315.722C87.0747 318.217 85.651 320.839 83.1557 321.579C80.6604 322.318 78.0383 320.894 77.2991 318.399C76.56 315.903 77.9837 313.281 80.479 312.542Z" fill="#F7791F"/>
<path d="M88.5007 336.069C90.8782 335.011 93.6637 336.08 94.7222 338.457C95.7807 340.835 94.7115 343.62 92.334 344.679C89.9565 345.737 87.171 344.668 86.1125 342.291C85.054 339.913 86.1232 337.128 88.5007 336.069Z" fill="#F7791F"/>
<path d="M99.2959 358.277C101.515 356.917 104.416 357.613 105.776 359.832C107.136 362.051 106.439 364.953 104.22 366.312C102.001 367.672 99.1 366.976 97.7402 364.757C96.3804 362.538 97.0769 359.637 99.2959 358.277Z" fill="#F7791F"/>
<path d="M112.92 378.877C114.942 377.239 117.91 377.551 119.547 379.574C121.185 381.596 120.873 384.563 118.851 386.201C116.828 387.839 113.861 387.527 112.223 385.505C110.585 383.482 110.897 380.515 112.92 378.877Z" fill="#F7791F"/>
<path d="M129.423 397.852C131.214 395.964 134.197 395.886 136.085 397.677C137.972 399.469 138.05 402.451 136.259 404.339C134.468 406.227 131.485 406.305 129.597 404.513C127.709 402.722 127.631 399.739 129.423 397.852Z" fill="#F7791F"/>
<path d="M148.002 414.216C149.532 412.11 152.479 411.643 154.584 413.173C156.69 414.703 157.157 417.65 155.627 419.755C154.097 421.861 151.15 422.327 149.045 420.798C146.939 419.268 146.473 416.321 148.002 414.216Z" fill="#F7791F"/>
<path d="M168.577 428.015C169.819 425.728 172.68 424.881 174.967 426.122C177.254 427.364 178.101 430.225 176.86 432.512C175.618 434.799 172.757 435.647 170.47 434.405C168.183 433.163 167.335 430.302 168.577 428.015Z" fill="#F7791F"/>
<path d="M190.795 439.014C191.728 436.585 194.453 435.371 196.883 436.304C199.313 437.236 200.526 439.962 199.594 442.392C198.661 444.821 195.935 446.035 193.506 445.102C191.076 444.17 189.862 441.444 190.795 439.014Z" fill="#F7791F"/>
<path d="M214.276 447.025C214.884 444.494 217.428 442.935 219.958 443.543C222.489 444.15 224.048 446.694 223.44 449.225C222.833 451.755 220.289 453.314 217.758 452.707C215.228 452.099 213.669 449.555 214.276 447.025Z" fill="#F7791F"/>
<path d="M238.619 451.909C238.891 449.321 241.209 447.443 243.798 447.715C246.386 447.987 248.263 450.306 247.991 452.894C247.719 455.482 245.401 457.36 242.812 457.088C240.224 456.816 238.346 454.497 238.619 451.909Z" fill="#F7791F"/>
<path d="M263.406 453.584C263.337 450.983 265.391 448.819 267.993 448.75C270.594 448.682 272.759 450.736 272.827 453.338C272.895 455.939 270.841 458.104 268.24 458.172C265.638 458.24 263.474 456.186 263.406 453.584Z" fill="#F7791F"/>
<path d="M288.213 452.022C287.806 449.451 289.56 447.037 292.13 446.63C294.701 446.223 297.115 447.977 297.522 450.547C297.929 453.118 296.175 455.531 293.605 455.939C291.034 456.346 288.62 454.592 288.213 452.022Z" fill="#F7791F"/>
<path d="M312.617 447.247C311.878 444.752 313.302 442.13 315.797 441.391C318.292 440.652 320.914 442.075 321.653 444.571C322.393 447.066 320.969 449.688 318.474 450.427C315.978 451.166 313.356 449.743 312.617 447.247Z" fill="#F7791F"/>
<path d="M336.2 439.344C335.141 436.966 336.21 434.181 338.588 433.122C340.965 432.064 343.751 433.133 344.809 435.511C345.868 437.888 344.799 440.673 342.421 441.732C340.044 442.791 337.258 441.721 336.2 439.344Z" fill="#F7791F"/>
<path d="M358.373 428.375C357.013 426.156 357.71 423.255 359.929 421.895C362.148 420.535 365.049 421.232 366.409 423.451C367.768 425.67 367.072 428.571 364.853 429.931C362.634 431.291 359.733 430.594 358.373 428.375Z" fill="#F7791F"/>
<path d="M378.942 414.6C377.304 412.577 377.616 409.61 379.639 407.972C381.661 406.334 384.628 406.646 386.266 408.669C387.904 410.691 387.592 413.658 385.57 415.296C383.547 416.934 380.58 416.622 378.942 414.6Z" fill="#F7791F"/>
<path d="M397.555 398.253C395.667 396.462 395.589 393.479 397.38 391.591C399.172 389.703 402.154 389.625 404.042 391.417C405.93 393.208 406.008 396.191 404.217 398.079C402.425 399.966 399.443 400.045 397.555 398.253Z" fill="#F7791F"/>
<path d="M413.893 379.615C411.787 378.086 411.321 375.139 412.85 373.033C414.38 370.928 417.327 370.461 419.433 371.991C421.538 373.521 422.005 376.468 420.475 378.573C418.945 380.678 415.998 381.145 413.893 379.615Z" fill="#F7791F"/>
<path d="M427.677 359.005C425.39 357.764 424.542 354.903 425.784 352.616C427.026 350.329 429.887 349.481 432.174 350.723C434.461 351.965 435.308 354.826 434.066 357.113C432.825 359.4 429.964 360.247 427.677 359.005Z" fill="#F7791F"/>
<path d="M438.671 336.776C436.241 335.843 435.027 333.117 435.96 330.688C436.893 328.258 439.618 327.044 442.048 327.977C444.478 328.91 445.691 331.635 444.759 334.065C443.826 336.495 441.1 337.708 438.671 336.776Z" fill="#F7791F"/>
<path d="M446.686 313.306C444.156 312.699 442.597 310.155 443.204 307.624C443.812 305.094 446.356 303.535 448.886 304.142C451.417 304.75 452.976 307.294 452.368 309.824C451.761 312.355 449.217 313.914 446.686 313.306Z" fill="#F7791F"/>
<path d="M451.587 288.999C448.998 288.727 447.121 286.408 447.393 283.82C447.665 281.232 449.984 279.354 452.572 279.626C455.16 279.898 457.038 282.217 456.766 284.805C456.494 287.394 454.175 289.271 451.587 288.999Z" fill="#F7791F"/>
<path d="M453.288 264.27C450.686 264.338 448.522 262.285 448.454 259.683C448.385 257.081 450.439 254.917 453.041 254.849C455.643 254.781 457.807 256.835 457.875 259.436C457.943 262.038 455.889 264.202 453.288 264.27Z" fill="#F7791F"/>
<path d="M451.76 239.542C449.19 239.95 446.776 238.196 446.369 235.625C445.962 233.055 447.716 230.641 450.286 230.234C452.856 229.827 455.27 231.581 455.677 234.151C456.084 236.722 454.331 239.135 451.76 239.542Z" fill="#F7791F"/>
<path d="M447.031 215.239C444.536 215.978 441.914 214.555 441.174 212.059C440.435 209.564 441.859 206.942 444.354 206.203C446.85 205.464 449.472 206.887 450.211 209.383C450.95 211.878 449.526 214.5 447.031 215.239Z" fill="#F7791F"/>
<path d="M439.18 191.776C436.803 192.834 434.017 191.765 432.959 189.388C431.9 187.01 432.97 184.225 435.347 183.166C437.725 182.108 440.51 183.177 441.569 185.554C442.627 187.932 441.558 190.717 439.18 191.776Z" fill="#F7791F"/>
<path d="M428.159 169.483C425.94 170.843 423.038 170.147 421.679 167.928C420.319 165.709 421.015 162.807 423.234 161.448C425.453 160.088 428.354 160.784 429.714 163.003C431.074 165.222 430.378 168.123 428.159 169.483Z" fill="#F7791F"/>
<path d="M414.338 148.814C412.316 150.452 409.349 150.14 407.711 148.117C406.073 146.095 406.385 143.127 408.407 141.49C410.43 139.852 413.397 140.164 415.035 142.186C416.673 144.209 416.361 147.176 414.338 148.814Z" fill="#F7791F"/>
<path d="M397.79 130.195C395.999 132.083 393.016 132.161 391.129 130.369C389.241 128.578 389.163 125.595 390.954 123.708C392.746 121.82 395.728 121.742 397.616 123.533C399.504 125.325 399.582 128.307 397.79 130.195Z" fill="#F7791F"/>
<path d="M379.137 113.794C377.607 115.9 374.661 116.366 372.555 114.837C370.45 113.307 369.983 110.36 371.513 108.255C373.042 106.149 375.989 105.682 378.095 107.212C380.2 108.742 380.667 111.689 379.137 113.794Z" fill="#F7791F"/>
<path d="M358.524 99.9692C357.283 102.256 354.422 103.104 352.135 101.862C349.848 100.62 349 97.7594 350.242 95.4723C351.484 93.1851 354.345 92.3377 356.632 93.5795C358.919 94.8213 359.766 97.6821 358.524 99.9692Z" fill="#F7791F"/>
<path d="M336.305 88.9567C335.372 91.3863 332.646 92.5999 330.217 91.6672C327.787 90.7346 326.574 88.0089 327.506 85.5793C328.439 83.1496 331.165 81.9361 333.594 82.8687C336.024 83.8014 337.237 86.527 336.305 88.9567Z" fill="#F7791F"/>
<path d="M312.859 80.945C312.251 83.4756 309.707 85.0346 307.176 84.427C304.646 83.8195 303.087 81.2755 303.694 78.7449C304.302 76.2143 306.846 74.6554 309.377 75.2629C311.907 75.8705 313.466 78.4144 312.859 80.945Z" fill="#F7791F"/>
<path d="M288.587 76.0713C288.315 78.6596 285.996 80.5372 283.408 80.2652C280.819 79.9932 278.942 77.6744 279.214 75.0862C279.486 72.498 281.805 70.6203 284.393 70.8923C286.981 71.1644 288.859 73.4831 288.587 76.0713Z" fill="#F7791F"/>
<path d="M263.905 74.4189C263.973 77.0205 261.919 79.1847 259.318 79.2529C256.716 79.321 254.552 77.2672 254.484 74.6656C254.415 72.064 256.469 69.8997 259.071 69.8316C261.672 69.7635 263.837 71.8173 263.905 74.4189Z" fill="#F7791F"/>
<path d="M239.235 76.0162C239.642 78.5866 237.888 81.0004 235.318 81.4075C232.747 81.8147 230.333 80.0609 229.926 77.4905C229.519 74.92 231.273 72.5062 233.843 72.0991C236.414 71.692 238.828 73.4457 239.235 76.0162Z" fill="#F7791F"/>
<path d="M214.999 80.8357C215.738 83.331 214.315 85.9531 211.819 86.6922C209.324 87.4313 206.702 86.0077 205.963 83.5124C205.224 81.017 206.647 78.395 209.143 77.6558C211.638 76.9167 214.26 78.3403 214.999 80.8357Z" fill="#F7791F"/>
<path d="M191.612 88.795C192.671 91.1725 191.602 93.9579 189.224 95.0165C186.847 96.075 184.061 95.0058 183.003 92.6283C181.944 90.2508 183.013 87.4653 185.391 86.4068C187.768 85.3483 190.554 86.4175 191.612 88.795Z" fill="#F7791F"/>
<path d="M149.717 84.0227C151.04 86.0082 150.502 88.6898 148.517 90.0123C146.531 91.3348 143.849 90.7974 142.527 88.8119C141.204 86.8264 141.742 84.1447 143.727 82.8222C145.713 81.4997 148.395 82.0372 149.717 84.0227Z" fill="#F7791F"/>
<path d="M129.509 98.4426C131.053 100.261 130.831 102.987 129.012 104.531C127.194 106.075 124.468 105.853 122.924 104.034C121.38 102.216 121.602 99.4896 123.421 97.9456C125.239 96.4015 127.965 96.6241 129.509 98.4426Z" fill="#F7791F"/>
<path d="M111.128 115.106C112.873 116.733 112.969 119.466 111.342 121.211C109.715 122.956 106.981 123.051 105.237 121.424C103.492 119.797 103.396 117.064 105.023 115.319C106.65 113.574 109.384 113.479 111.128 115.106Z" fill="#F7791F"/>
<path d="M94.8233 133.788C96.7451 135.201 97.1572 137.905 95.7438 139.827C94.3304 141.748 91.6266 142.16 89.7048 140.747C87.783 139.334 87.3708 136.63 88.7843 134.708C90.1977 132.786 92.9015 132.374 94.8233 133.788Z" fill="#F7791F"/>
<path d="M80.8142 154.235C82.8871 155.415 83.6104 158.053 82.4296 160.126C81.2488 162.199 78.6112 162.922 76.5383 161.741C74.4654 160.56 73.7421 157.923 74.9229 155.85C76.1037 153.777 78.7413 153.054 80.8142 154.235Z" fill="#F7791F"/>
<path d="M69.2907 176.171C71.4866 177.103 72.5112 179.639 71.579 181.835C70.6469 184.03 68.1111 185.055 65.9151 184.123C63.7191 183.191 62.6946 180.655 63.6267 178.459C64.5588 176.263 67.0947 175.238 69.2907 176.171Z" fill="#F7791F"/>
<path d="M60.4085 199.299C62.6979 199.97 64.0099 202.37 63.339 204.659C62.6681 206.948 60.2683 208.26 57.979 207.589C55.6896 206.918 54.3776 204.519 55.0485 202.229C55.7194 199.94 58.1192 198.628 60.4085 199.299Z" fill="#F7791F"/>
<path d="M54.2879 223.307C56.6396 223.707 58.2214 225.939 57.8208 228.29C57.4202 230.642 55.189 232.224 52.8372 231.823C50.4855 231.423 48.9038 229.192 49.3044 226.84C49.7049 224.488 51.9361 222.906 54.2879 223.307Z" fill="#F7791F"/>
<path d="M51.0115 247.87C53.3938 247.995 55.2239 250.027 55.0991 252.409C54.9742 254.792 52.9417 256.622 50.5594 256.497C48.177 256.372 46.3469 254.34 46.4718 251.957C46.5966 249.575 48.6291 247.745 51.0115 247.87Z" fill="#F7791F"/>
<path d="M50.6238 272.655C53.0045 272.503 55.0582 274.309 55.2107 276.69C55.3633 279.071 53.557 281.124 51.1763 281.277C48.7955 281.429 46.7419 279.623 46.5893 277.242C46.4367 274.862 48.243 272.808 50.6238 272.655Z" fill="#F7791F"/>
<path d="M53.1298 297.329C55.4768 296.901 57.7262 298.456 58.1541 300.803C58.5821 303.15 57.0264 305.4 54.6795 305.828C52.3325 306.255 50.0831 304.7 49.6552 302.353C49.2272 300.006 50.7829 297.756 53.1298 297.329Z" fill="#F7791F"/>
<path d="M58.4958 321.556C60.7772 320.858 63.192 322.142 63.8895 324.423C64.587 326.705 63.303 329.12 61.0216 329.817C58.7402 330.515 56.3254 329.231 55.6279 326.949C54.9304 324.668 56.2144 322.253 58.4958 321.556Z" fill="#F7791F"/>
<path d="M66.6491 345.009C68.8341 344.051 71.3817 345.046 72.3393 347.231C73.2969 349.416 72.302 351.964 70.117 352.921C67.932 353.879 65.3844 352.884 64.4268 350.699C63.4692 348.514 64.4641 345.967 66.6491 345.009Z" fill="#F7791F"/>
<path d="M77.4461 367.306C79.5052 366.101 82.151 366.793 83.3559 368.852C84.5607 370.911 83.8682 373.557 81.8091 374.762C79.7501 375.967 77.1042 375.274 75.8994 373.215C74.6946 371.156 75.3871 368.511 77.4461 367.306Z" fill="#F7791F"/>
<path d="M90.5449 388.244C92.4502 386.809 95.1586 387.189 96.5943 389.094C98.03 391 97.6493 393.708 95.7441 395.144C93.8388 396.58 91.1305 396.199 89.6948 394.294C88.2591 392.388 88.6397 389.68 90.5449 388.244Z" fill="#F7791F"/>
<path d="M106.063 407.474C107.789 405.827 110.523 405.89 112.17 407.616C113.818 409.342 113.754 412.076 112.028 413.723C110.303 415.37 107.568 415.307 105.921 413.581C104.274 411.855 104.338 409.121 106.063 407.474Z" fill="#F7791F"/>
<path d="M123.726 424.768C125.249 422.931 127.972 422.677 129.808 424.2C131.644 425.723 131.899 428.446 130.376 430.282C128.853 432.119 126.13 432.373 124.294 430.85C122.457 429.327 122.203 426.604 123.726 424.768Z" fill="#F7791F"/>
<path d="M143.293 439.892C144.593 437.892 147.268 437.323 149.269 438.622C151.269 439.921 151.838 442.597 150.539 444.597C149.239 446.598 146.564 447.167 144.564 445.868C142.563 444.568 141.994 441.893 143.293 439.892Z" fill="#F7791F"/>
<path d="M164.502 452.643C165.56 450.505 168.151 449.629 170.289 450.688C172.427 451.746 173.303 454.337 172.244 456.475C171.186 458.613 168.595 459.488 166.457 458.43C164.319 457.372 163.444 454.781 164.502 452.643Z" fill="#F7791F"/>
<path d="M187.064 462.847C187.867 460.6 190.339 459.43 192.585 460.233C194.832 461.036 196.002 463.508 195.199 465.754C194.396 468.001 191.924 469.171 189.678 468.368C187.431 467.565 186.261 465.093 187.064 462.847Z" fill="#F7791F"/>
<path d="M210.675 470.366C211.211 468.042 213.531 466.592 215.855 467.129C218.18 467.666 219.629 469.985 219.093 472.31C218.556 474.634 216.236 476.083 213.912 475.547C211.588 475.01 210.138 472.691 210.675 470.366Z" fill="#F7791F"/>
<path d="M235.015 475.1C235.278 472.729 237.414 471.02 239.785 471.283C242.156 471.546 243.865 473.682 243.601 476.053C243.338 478.424 241.203 480.132 238.832 479.869C236.461 479.606 234.752 477.471 235.015 475.1Z" fill="#F7791F"/>
<path d="M259.756 476.983C259.742 474.597 261.664 472.652 264.05 472.638C266.436 472.624 268.381 474.547 268.395 476.932C268.408 479.318 266.486 481.263 264.1 481.277C261.715 481.291 259.769 479.368 259.756 476.983Z" fill="#F7791F"/>
<path d="M284.562 475.99C284.271 473.622 285.955 471.467 288.323 471.177C290.69 470.886 292.846 472.57 293.136 474.937C293.427 477.305 291.743 479.461 289.375 479.751C287.008 480.042 284.852 478.358 284.562 475.99Z" fill="#F7791F"/>
<path d="M309.098 472.136C308.535 469.818 309.957 467.482 312.275 466.918C314.593 466.354 316.929 467.776 317.493 470.094C318.056 472.413 316.634 474.749 314.316 475.312C311.998 475.876 309.662 474.454 309.098 472.136Z" fill="#F7791F"/>
<path d="M333.033 465.471C332.204 463.234 333.345 460.749 335.582 459.92C337.819 459.091 340.305 460.232 341.134 462.469C341.963 464.706 340.821 467.191 338.584 468.02C336.347 468.849 333.862 467.708 333.033 465.471Z" fill="#F7791F"/>
<path d="M356.042 456.086C354.959 453.961 355.805 451.36 357.93 450.277C360.056 449.194 362.657 450.039 363.74 452.164C364.823 454.29 363.978 456.891 361.852 457.974C359.727 459.057 357.126 458.212 356.042 456.086Z" fill="#F7791F"/>
<path d="M377.618 444.044C376.295 442.059 376.833 439.377 378.818 438.055C380.804 436.732 383.485 437.27 384.808 439.255C386.13 441.241 385.593 443.922 383.607 445.245C381.622 446.567 378.94 446.03 377.618 444.044Z" fill="#F7791F"/>
<path d="M397.665 429.572C396.121 427.754 396.343 425.028 398.162 423.484C399.981 421.94 402.706 422.162 404.251 423.981C405.795 425.799 405.572 428.525 403.754 430.069C401.935 431.613 399.209 431.391 397.665 429.572Z" fill="#F7791F"/>
<path d="M415.913 412.866C414.168 411.239 414.073 408.505 415.7 406.761C417.327 405.016 420.06 404.92 421.805 406.547C423.549 408.174 423.645 410.908 422.018 412.653C420.391 414.397 417.658 414.493 415.913 412.866Z" fill="#F7791F"/>
<path d="M432.115 394.151C430.193 392.737 429.781 390.033 431.194 388.112C432.608 386.19 435.311 385.778 437.233 387.191C439.155 388.605 439.567 391.308 438.154 393.23C436.74 395.152 434.036 395.564 432.115 394.151Z" fill="#F7791F"/>
<path d="M446.051 373.68C443.978 372.499 443.255 369.862 444.436 367.789C445.617 365.716 448.254 364.993 450.327 366.173C452.4 367.354 453.123 369.992 451.943 372.065C450.762 374.138 448.124 374.861 446.051 373.68Z" fill="#F7791F"/>
<path d="M457.534 351.731C455.338 350.799 454.314 348.263 455.246 346.067C456.178 343.871 458.714 342.846 460.91 343.778C463.106 344.711 464.13 347.246 463.198 349.442C462.266 351.638 459.73 352.663 457.534 351.731Z" fill="#F7791F"/>
<path d="M466.408 328.6C464.119 327.929 462.807 325.529 463.478 323.24C464.149 320.951 466.548 319.639 468.838 320.309C471.127 320.98 472.439 323.38 471.768 325.669C471.097 327.959 468.698 329.271 466.408 328.6Z" fill="#F7791F"/>
<path d="M472.553 304.6C470.202 304.199 468.62 301.968 469.02 299.616C469.421 297.265 471.652 295.683 474.004 296.083C476.356 296.484 477.937 298.715 477.537 301.067C477.136 303.419 474.905 305 472.553 304.6Z" fill="#F7791F"/>
<path d="M475.886 280.055C473.504 279.931 471.674 277.898 471.799 275.516C471.924 273.133 473.956 271.303 476.338 271.428C478.721 271.553 480.551 273.585 480.426 275.968C480.301 278.35 478.269 280.18 475.886 280.055Z" fill="#F7791F"/>
<path d="M476.362 255.298C473.982 255.451 471.928 253.645 471.775 251.264C471.623 248.883 473.429 246.83 475.81 246.677C478.191 246.524 480.244 248.331 480.397 250.711C480.549 253.092 478.743 255.146 476.362 255.298Z" fill="#F7791F"/>
<path d="M473.975 230.664C471.628 231.092 469.378 229.536 468.95 227.189C468.522 224.842 470.078 222.593 472.425 222.165C474.772 221.737 477.021 223.292 477.449 225.639C477.877 227.986 476.321 230.236 473.975 230.664Z" fill="#F7791F"/>
<path d="M468.756 206.484C466.474 207.182 464.059 205.898 463.362 203.616C462.664 201.335 463.948 198.92 466.23 198.223C468.511 197.525 470.926 198.809 471.624 201.091C472.321 203.372 471.037 205.787 468.756 206.484Z" fill="#F7791F"/>
<path d="M460.776 183.088C458.591 184.045 456.043 183.05 455.086 180.865C454.128 178.68 455.123 176.133 457.308 175.175C459.493 174.217 462.041 175.212 462.998 177.397C463.956 179.582 462.961 182.13 460.776 183.088Z" fill="#F7791F"/>
<path d="M450.044 160.757C447.985 161.962 445.34 161.27 444.135 159.211C442.93 157.152 443.622 154.506 445.681 153.301C447.74 152.096 450.386 152.789 451.591 154.848C452.796 156.907 452.103 159.552 450.044 160.757Z" fill="#F7791F"/>
<path d="M436.706 139.796C434.801 141.231 432.093 140.851 430.657 138.945C429.221 137.04 429.602 134.332 431.507 132.896C433.413 131.46 436.121 131.841 437.557 133.746C438.992 135.652 438.612 138.36 436.706 139.796Z" fill="#F7791F"/>
<path d="M421.041 120.518C419.315 122.166 416.581 122.102 414.934 120.376C413.287 118.65 413.35 115.916 415.076 114.269C416.802 112.622 419.536 112.686 421.183 114.411C422.83 116.137 422.767 118.871 421.041 120.518Z" fill="#F7791F"/>
<path d="M403.421 103.104C401.898 104.94 399.175 105.194 397.339 103.672C395.502 102.149 395.248 99.4257 396.771 97.5893C398.294 95.7529 401.017 95.4987 402.853 97.0215C404.69 98.5443 404.944 101.267 403.421 103.104Z" fill="#F7791F"/>
<path d="M384.142 87.7587C382.843 89.7594 380.168 90.3281 378.167 89.0288C376.166 87.7295 375.598 85.0542 376.897 83.0535C378.196 81.0527 380.872 80.4841 382.872 81.7834C384.873 83.0827 385.442 85.7579 384.142 87.7587Z" fill="#F7791F"/>
<path d="M362.838 75.01C361.779 77.1481 359.188 78.0235 357.05 76.9652C354.912 75.907 354.037 73.3159 355.095 71.1778C356.153 69.0397 358.744 68.1644 360.882 69.2226C363.021 70.2809 363.896 72.872 362.838 75.01Z" fill="#F7791F"/>
<path d="M340.205 64.8218C339.402 67.0683 336.93 68.2386 334.683 67.4357C332.437 66.6328 331.267 64.1608 332.07 61.9144C332.872 59.6679 335.344 58.4976 337.591 59.3005C339.837 60.1034 341.008 62.5754 340.205 64.8218Z" fill="#F7791F"/>
<path d="M316.55 57.3317C316.013 59.6562 313.693 61.1055 311.369 60.5689C309.045 60.0322 307.595 57.7128 308.132 55.3883C308.669 53.0638 310.988 51.6145 313.312 52.1512C315.637 52.6878 317.086 55.0072 316.55 57.3317Z" fill="#F7791F"/>
<path d="M292.192 52.6411C291.929 55.0122 289.793 56.721 287.422 56.4578C285.051 56.1947 283.342 54.0592 283.605 51.6881C283.869 49.3171 286.004 47.6083 288.375 47.8714C290.746 48.1346 292.455 50.2701 292.192 52.6411Z" fill="#F7791F"/>
<path d="M267.461 50.8134C267.475 53.199 265.552 55.1441 263.167 55.158C260.781 55.1719 258.836 53.2492 258.822 50.8636C258.808 48.4781 260.731 46.5329 263.117 46.519C265.502 46.5051 267.447 48.4278 267.461 50.8134Z" fill="#F7791F"/>
<path d="M242.692 51.8732C242.983 54.241 241.299 56.3962 238.931 56.6869C236.563 56.9777 234.408 55.2938 234.117 52.926C233.827 50.5582 235.51 48.403 237.878 48.1122C240.246 47.8215 242.401 49.5053 242.692 51.8732Z" fill="#F7791F"/>
<path d="M218.219 55.8062C218.783 58.1243 217.361 60.4604 215.043 61.024C212.725 61.5877 210.389 60.1655 209.825 57.8474C209.261 55.5293 210.684 53.1932 213.002 52.6295C215.32 52.0659 217.656 53.4881 218.219 55.8062Z" fill="#F7791F"/>
<path d="M194.374 62.5594C195.203 64.7964 194.062 67.2818 191.825 68.1107C189.588 68.9397 187.102 67.7983 186.273 65.5613C185.444 63.3243 186.586 60.8389 188.823 60.01C191.06 59.181 193.545 60.3224 194.374 62.5594Z" fill="#F7791F"/>
<path d="M171.479 72.0413C172.562 74.1669 171.717 76.768 169.591 77.8511C167.465 78.9341 164.864 78.0889 163.781 75.9633C162.698 73.8377 163.543 71.2366 165.669 70.1536C167.794 69.0705 170.396 69.9157 171.479 72.0413Z" fill="#F7791F"/>
<path d="M128.347 70.096C129.622 71.8505 129.233 74.3063 127.478 75.581C125.724 76.8558 123.268 76.4668 121.993 74.7123C120.718 72.9577 121.107 70.502 122.862 69.2272C124.616 67.9524 127.072 68.3414 128.347 70.096Z" fill="#F7791F"/>
<path d="M108.765 85.3493C110.216 86.961 110.086 89.444 108.474 90.8951C106.863 92.3463 104.38 92.2162 102.929 90.6045C101.477 88.9928 101.607 86.5099 103.219 85.0587C104.831 83.6075 107.314 83.7376 108.765 85.3493Z" fill="#F7791F"/>
<path d="M90.8907 102.564C92.5024 104.015 92.6325 106.498 91.1814 108.11C89.7302 109.721 87.2472 109.851 85.6356 108.4C84.0239 106.949 83.8937 104.466 85.3449 102.854C86.7961 101.243 89.279 101.113 90.8907 102.564Z" fill="#F7791F"/>
<path d="M74.9197 121.551C76.6743 122.825 77.0632 125.281 75.7885 127.036C74.5137 128.79 72.058 129.179 70.3034 127.904C68.5489 126.63 68.1599 124.174 69.4347 122.419C70.7094 120.665 73.1652 120.276 74.9197 121.551Z" fill="#F7791F"/>
<path d="M61.0271 142.102C62.9053 143.186 63.5488 145.588 62.4644 147.466C61.38 149.344 58.9784 149.988 57.1002 148.903C55.222 147.819 54.5785 145.417 55.6629 143.539C56.7473 141.661 59.1489 141.018 61.0271 142.102Z" fill="#F7791F"/>
<path d="M49.3649 163.993C51.3462 164.875 52.2372 167.196 51.3551 169.177C50.473 171.158 48.1518 172.049 46.1705 171.167C44.1893 170.285 43.2983 167.964 44.1804 165.983C45.0625 164.001 47.3837 163.11 49.3649 163.993Z" fill="#F7791F"/>
<path d="M40.0611 186.983C42.1237 187.653 43.2525 189.868 42.5823 191.931C41.9121 193.993 39.6968 195.122 37.6342 194.452C35.5716 193.782 34.4428 191.566 35.113 189.504C35.7831 187.441 37.9985 186.312 40.0611 186.983Z" fill="#F7791F"/>
<path d="M33.2175 210.82C35.3388 211.271 36.693 213.356 36.2421 215.478C35.7912 217.599 33.706 218.953 31.5846 218.502C29.4632 218.051 28.1091 215.966 28.56 213.845C29.0109 211.723 31.0961 210.369 33.2175 210.82Z" fill="#F7791F"/>
<path d="M28.909 235.244C31.0659 235.471 32.6306 237.403 32.4039 239.56C32.1772 241.717 30.245 243.282 28.0881 243.055C25.9312 242.828 24.3665 240.896 24.5932 238.739C24.8199 236.582 26.7522 235.017 28.909 235.244Z" fill="#F7791F"/>
<path d="M27.1831 259.987C29.3518 259.987 31.1099 261.745 31.1099 263.914C31.1099 266.082 29.3518 267.841 27.1831 267.841C25.0143 267.841 23.2562 266.082 23.2562 263.914C23.2562 261.745 25.0143 259.987 27.1831 259.987Z" fill="#F7791F"/>
<path d="M28.0584 284.777C30.2152 284.551 32.1475 286.115 32.3742 288.272C32.6009 290.429 31.0362 292.361 28.8793 292.588C26.7224 292.815 24.7902 291.25 24.5635 289.093C24.3368 286.936 25.9015 285.004 28.0584 284.777Z" fill="#F7791F"/>
<path d="M31.5254 309.344C33.6468 308.893 35.732 310.247 36.1829 312.368C36.6338 314.49 35.2796 316.575 33.1583 317.026C31.0369 317.477 28.9517 316.123 28.5008 314.001C28.0499 311.88 29.404 309.795 31.5254 309.344Z" fill="#F7791F"/>
<path d="M37.5462 333.417C39.6088 332.747 41.8242 333.876 42.4944 335.939C43.1646 338.001 42.0358 340.217 39.9732 340.887C37.9106 341.557 35.6952 340.428 35.025 338.365C34.3549 336.303 35.4836 334.088 37.5462 333.417Z" fill="#F7791F"/>
<path d="M46.0548 356.734C48.0361 355.852 50.3573 356.743 51.2394 358.724C52.1215 360.705 51.2305 363.027 49.2492 363.909C47.268 364.791 44.9467 363.9 44.0646 361.919C43.1825 359.937 44.0736 357.616 46.0548 356.734Z" fill="#F7791F"/>
<path d="M56.958 379.038C58.8361 377.954 61.2378 378.597 62.3222 380.476C63.4065 382.354 62.763 384.755 60.8848 385.84C59.0066 386.924 56.605 386.281 55.5206 384.403C54.4363 382.524 55.0798 380.123 56.958 379.038Z" fill="#F7791F"/>
<path d="M70.0549 400.064C71.8095 398.789 74.2652 399.178 75.54 400.933C76.8148 402.688 76.4258 405.143 74.6713 406.418C72.9167 407.693 70.461 407.304 69.1862 405.549C67.9114 403.795 68.3004 401.339 70.0549 400.064Z" fill="#F7791F"/>
<path d="M85.2836 419.603C86.8953 418.152 89.3782 418.282 90.8294 419.894C92.2806 421.506 92.1505 423.989 90.5388 425.44C88.9271 426.891 86.4441 426.761 84.9929 425.149C83.5418 423.537 83.6719 421.054 85.2836 419.603Z" fill="#F7791F"/>
<path d="M102.477 437.441C103.928 435.829 106.411 435.699 108.023 437.15C109.634 438.602 109.765 441.085 108.313 442.696C106.862 444.308 104.379 444.438 102.768 442.987C101.156 441.536 101.026 439.053 102.477 437.441Z" fill="#F7791F"/>
<path d="M121.447 453.382C122.721 451.628 125.177 451.239 126.932 452.514C128.686 453.788 129.075 456.244 127.801 457.999C126.526 459.753 124.07 460.142 122.315 458.867C120.561 457.593 120.172 455.137 121.447 453.382Z" fill="#F7791F"/>
<path d="M141.985 467.252C143.069 465.374 145.471 464.731 147.349 465.815C149.227 466.899 149.871 469.301 148.787 471.179C147.702 473.058 145.301 473.701 143.422 472.617C141.544 471.532 140.901 469.131 141.985 467.252Z" fill="#F7791F"/>
<path d="M163.867 478.899C164.749 476.918 167.07 476.027 169.051 476.909C171.033 477.791 171.924 480.113 171.042 482.094C170.159 484.075 167.838 484.966 165.857 484.084C163.876 483.202 162.985 480.881 163.867 478.899Z" fill="#F7791F"/>
<path d="M186.853 488.196C187.523 486.133 189.738 485.004 191.801 485.675C193.863 486.345 194.992 488.56 194.322 490.623C193.652 492.685 191.436 493.814 189.374 493.144C187.311 492.474 186.182 490.258 186.853 488.196Z" fill="#F7791F"/>
<path d="M210.69 495.039C211.141 492.918 213.226 491.564 215.348 492.015C217.469 492.466 218.823 494.551 218.372 496.672C217.921 498.794 215.836 500.148 213.715 499.697C211.593 499.246 210.239 497.161 210.69 495.039Z" fill="#F7791F"/>
<path d="M235.118 499.355C235.345 497.198 237.277 495.634 239.434 495.86C241.591 496.087 243.156 498.019 242.929 500.176C242.702 502.333 240.77 503.898 238.613 503.671C236.456 503.444 234.892 501.512 235.118 499.355Z" fill="#F7791F"/>
<path d="M259.87 501.097C259.87 498.928 261.628 497.17 263.797 497.17C265.966 497.17 267.724 498.928 267.724 501.097C267.724 503.265 265.966 505.023 263.797 505.023C261.628 505.023 259.87 503.265 259.87 501.097Z" fill="#F7791F"/>
<path d="M284.673 500.244C284.447 498.087 286.011 496.155 288.168 495.928C290.325 495.701 292.257 497.266 292.484 499.423C292.711 501.58 291.146 503.512 288.989 503.739C286.832 503.965 284.9 502.401 284.673 500.244Z" fill="#F7791F"/>
<path d="M309.257 496.806C308.806 494.685 310.16 492.6 312.282 492.149C314.403 491.698 316.488 493.052 316.939 495.173C317.39 497.295 316.036 499.38 313.915 499.831C311.793 500.282 309.708 498.928 309.257 496.806Z" fill="#F7791F"/>
<path d="M333.352 490.822C332.681 488.759 333.81 486.544 335.873 485.874C337.935 485.204 340.151 486.332 340.821 488.395C341.491 490.458 340.362 492.673 338.3 493.343C336.237 494.013 334.022 492.885 333.352 490.822Z" fill="#F7791F"/>
<path d="M356.693 482.356C355.811 480.375 356.702 478.054 358.683 477.172C360.664 476.289 362.986 477.181 363.868 479.162C364.75 481.143 363.859 483.464 361.878 484.346C359.896 485.228 357.575 484.337 356.693 482.356Z" fill="#F7791F"/>
<path d="M379.026 471.502C377.941 469.624 378.585 467.222 380.463 466.138C382.341 465.053 384.743 465.697 385.827 467.575C386.911 469.453 386.268 471.855 384.39 472.939C382.512 474.024 380.11 473.38 379.026 471.502Z" fill="#F7791F"/>
<path d="M400.023 458.356C398.749 456.602 399.137 454.146 400.892 452.871C402.647 451.596 405.102 451.985 406.377 453.74C407.652 455.494 407.263 457.95 405.508 459.225C403.754 460.5 401.298 460.111 400.023 458.356Z" fill="#F7791F"/>
<path d="M419.537 443.085C418.086 441.473 418.216 438.99 419.828 437.539C421.44 436.088 423.923 436.218 425.374 437.829C426.825 439.441 426.695 441.924 425.083 443.375C423.472 444.826 420.989 444.696 419.537 443.085Z" fill="#F7791F"/>
<path d="M437.354 425.855C435.743 424.404 435.612 421.921 437.064 420.309C438.515 418.697 440.998 418.567 442.609 420.018C444.221 421.47 444.351 423.953 442.9 425.564C441.449 427.176 438.966 427.306 437.354 425.855Z" fill="#F7791F"/>
<path d="M453.278 406.855C451.524 405.581 451.135 403.125 452.41 401.37C453.684 399.616 456.14 399.227 457.895 400.502C459.649 401.776 460.038 404.232 458.763 405.987C457.489 407.741 455.033 408.13 453.278 406.855Z" fill="#F7791F"/>
<path d="M467.136 386.295C465.257 385.21 464.614 382.809 465.698 380.93C466.783 379.052 469.184 378.409 471.062 379.493C472.941 380.577 473.584 382.979 472.5 384.857C471.415 386.735 469.014 387.379 467.136 386.295Z" fill="#F7791F"/>
<path d="M478.774 364.397C476.792 363.515 475.901 361.194 476.784 359.213C477.666 357.232 479.987 356.341 481.968 357.223C483.949 358.105 484.84 360.426 483.958 362.407C483.076 364.389 480.755 365.28 478.774 364.397Z" fill="#F7791F"/>
<path d="M488.066 341.404C486.003 340.734 484.874 338.519 485.544 336.456C486.215 334.394 488.43 333.265 490.493 333.935C492.555 334.605 493.684 336.82 493.014 338.883C492.344 340.946 490.128 342.074 488.066 341.404Z" fill="#F7791F"/>
<path d="M494.909 317.567C492.788 317.116 491.434 315.031 491.885 312.909C492.335 310.788 494.421 309.434 496.542 309.885C498.663 310.335 500.018 312.421 499.567 314.542C499.116 316.663 497.031 318.018 494.909 317.567Z" fill="#F7791F"/>
<path d="M499.23 293.146C497.073 292.919 495.508 290.987 495.735 288.83C495.962 286.673 497.894 285.109 500.051 285.335C502.208 285.562 503.772 287.494 503.546 289.651C503.319 291.808 501.387 293.373 499.23 293.146Z" fill="#F7791F"/>
<path d="M500.98 268.41C498.811 268.41 497.053 266.651 497.053 264.483C497.053 262.314 498.811 260.556 500.98 260.556C503.148 260.556 504.906 262.314 504.906 264.483C504.906 266.651 503.148 268.41 500.98 268.41Z" fill="#F7791F"/>
<path d="M500.14 243.629C497.983 243.855 496.051 242.291 495.824 240.134C495.597 237.977 497.162 236.045 499.319 235.818C501.476 235.591 503.408 237.156 503.635 239.313C503.861 241.47 502.297 243.402 500.14 243.629Z" fill="#F7791F"/>
<path d="M496.72 219.075C494.598 219.526 492.513 218.171 492.062 216.05C491.611 213.929 492.965 211.843 495.087 211.393C497.208 210.942 499.293 212.296 499.744 214.417C500.195 216.538 498.841 218.624 496.72 219.075Z" fill="#F7791F"/>
<path d="M490.756 195.017C488.694 195.687 486.478 194.558 485.808 192.495C485.138 190.433 486.267 188.217 488.329 187.547C490.392 186.877 492.607 188.006 493.277 190.068C493.948 192.131 492.819 194.346 490.756 195.017Z" fill="#F7791F"/>
<path d="M482.315 171.718C480.334 172.6 478.013 171.709 477.131 169.728C476.249 167.747 477.14 165.425 479.121 164.543C481.102 163.661 483.423 164.552 484.305 166.534C485.188 168.515 484.297 170.836 482.315 171.718Z" fill="#F7791F"/>
<path d="M471.489 149.434C469.611 150.519 467.209 149.875 466.125 147.997C465.041 146.119 465.684 143.717 467.562 142.633C469.44 141.548 471.842 142.192 472.926 144.07C474.011 145.948 473.367 148.35 471.489 149.434Z" fill="#F7791F"/>
<path d="M458.315 128.388C456.561 129.663 454.105 129.274 452.83 127.519C451.555 125.765 451.944 123.309 453.699 122.034C455.453 120.759 457.909 121.148 459.184 122.903C460.459 124.657 460.07 127.113 458.315 128.388Z" fill="#F7791F"/>
<path d="M443.019 108.831C441.407 110.282 438.924 110.152 437.473 108.54C436.022 106.928 436.152 104.446 437.764 102.994C439.375 101.543 441.858 101.673 443.31 103.285C444.761 104.897 444.631 107.38 443.019 108.831Z" fill="#F7791F"/>
<path d="M425.768 90.9775C424.317 92.5892 421.834 92.7194 420.222 91.2682C418.61 89.817 418.48 87.3341 419.931 85.7224C421.383 84.1107 423.866 83.9805 425.477 85.4317C427.089 86.8829 427.219 89.3658 425.768 90.9775Z" fill="#F7791F"/>
<path d="M406.751 75.0237C405.477 76.7782 403.021 77.1672 401.266 75.8924C399.512 74.6176 399.123 72.1619 400.398 70.4073C401.672 68.6528 404.128 68.2638 405.883 69.5386C407.637 70.8134 408.026 73.2691 406.751 75.0237Z" fill="#F7791F"/>
<path d="M386.178 61.144C385.093 63.0222 382.692 63.6657 380.813 62.5813C378.935 61.497 378.292 59.0953 379.376 57.2171C380.46 55.3389 382.862 54.6954 384.74 55.7798C386.618 56.8642 387.262 59.2658 386.178 61.144Z" fill="#F7791F"/>
<path d="M364.272 49.4906C363.39 51.4719 361.069 52.3629 359.087 51.4808C357.106 50.5987 356.215 48.2775 357.097 46.2962C357.979 44.315 360.3 43.4239 362.282 44.306C364.263 45.1882 365.154 47.5094 364.272 49.4906Z" fill="#F7791F"/>
<path d="M341.274 40.1912C340.604 42.2538 338.389 43.3826 336.326 42.7124C334.263 42.0422 333.135 39.8269 333.805 37.7642C334.475 35.7016 336.69 34.5729 338.753 35.243C340.816 35.9132 341.944 38.1286 341.274 40.1912Z" fill="#F7791F"/>
<path d="M317.437 33.3476C316.986 35.4689 314.9 36.8231 312.779 36.3722C310.658 35.9213 309.304 33.836 309.754 31.7147C310.205 29.5933 312.291 28.2392 314.412 28.6901C316.533 29.141 317.887 31.2262 317.437 33.3476Z" fill="#F7791F"/>
<path d="M293.02 29.0347C292.794 31.1916 290.861 32.7563 288.704 32.5296C286.548 32.3029 284.983 30.3706 285.21 28.2138C285.436 26.0569 287.369 24.4922 289.525 24.7189C291.682 24.9456 293.247 26.8778 293.02 29.0347Z" fill="#F7791F"/>
<path d="M268.293 27.3C268.293 29.4687 266.535 31.2269 264.366 31.2269C262.197 31.2269 260.439 29.4687 260.439 27.3C260.439 25.1312 262.197 23.3731 264.366 23.3731C266.535 23.3731 268.293 25.1312 268.293 27.3Z" fill="#F7791F"/>
<path d="M243.525 28.1623C243.751 30.3192 242.187 32.2514 240.03 32.4781C237.873 32.7048 235.941 31.1401 235.714 28.9832C235.487 26.8264 237.052 24.8941 239.209 24.6674C241.366 24.4407 243.298 26.0054 243.525 28.1623Z" fill="#F7791F"/>
<path d="M218.988 31.6122C219.439 33.7336 218.085 35.8188 215.963 36.2697C213.842 36.7206 211.757 35.3664 211.306 33.2451C210.855 31.1237 212.209 29.0385 214.33 28.5876C216.452 28.1367 218.537 29.4908 218.988 31.6122Z" fill="#F7791F"/>
<path d="M194.951 37.612C195.621 39.6746 194.492 41.8899 192.43 42.5601C190.367 43.2303 188.152 42.1015 187.482 40.0389C186.811 37.9763 187.94 35.7609 190.003 35.0908C192.065 34.4206 194.281 35.5494 194.951 37.612Z" fill="#F7791F"/>
<path d="M171.677 46.0958C172.559 48.0771 171.668 50.3983 169.687 51.2804C167.706 52.1625 165.385 51.2715 164.502 49.2902C163.62 47.309 164.511 44.9877 166.493 44.1056C168.474 43.2235 170.795 44.1146 171.677 46.0958Z" fill="#F7791F"/>
<path d="M149.422 56.9708C150.506 58.8489 149.862 61.2506 147.984 62.335C146.106 63.4193 143.704 62.7758 142.62 60.8976C141.536 59.0194 142.179 56.6178 144.057 55.5334C145.936 54.449 148.337 55.0926 149.422 56.9708Z" fill="#F7791F"/>
<path d="M105.195 57.9081C106.409 59.4366 106.154 61.6598 104.625 62.8736C103.097 64.0875 100.874 63.8324 99.6599 62.3039C98.446 60.7754 98.7011 58.5522 100.23 57.3384C101.758 56.1245 103.981 56.3796 105.195 57.9081Z" fill="#F7791F"/>
<path d="M86.2693 73.9485C87.623 75.3547 87.5804 77.592 86.1742 78.9456C84.768 80.2993 82.5307 80.2567 81.177 78.8505C79.8233 77.4443 79.8659 75.207 81.2721 73.8533C82.6784 72.4996 84.9157 72.5422 86.2693 73.9485Z" fill="#F7791F"/>
<path d="M68.9586 91.713C70.4398 92.9842 70.61 95.2154 69.3389 96.6966C68.0677 98.1778 65.8365 98.348 64.3553 97.0769C62.8741 95.8057 62.7038 93.5745 63.975 92.0933C65.2461 90.6121 67.4774 90.4418 68.9586 91.713Z" fill="#F7791F"/>
<path d="M53.4198 111.041C55.0151 112.165 55.3967 114.37 54.272 115.966C53.1474 117.561 50.9425 117.943 49.3472 116.818C47.7518 115.693 47.3703 113.488 48.4949 111.893C49.6195 110.298 51.8244 109.916 53.4198 111.041Z" fill="#F7791F"/>
<path d="M39.7935 131.757C41.4885 132.725 42.078 134.884 41.1101 136.579C40.1422 138.274 37.9835 138.863 36.2885 137.895C34.5935 136.927 34.0041 134.769 34.9719 133.074C35.9398 131.379 38.0985 130.789 39.7935 131.757Z" fill="#F7791F"/>
<path d="M28.2032 153.674C29.9826 154.476 30.7745 156.569 29.9722 158.349C29.1698 160.128 27.0769 160.92 25.2976 160.117C23.5182 159.315 22.7263 157.222 23.5287 155.443C24.331 153.664 26.4239 152.872 28.2032 153.674Z" fill="#F7791F"/>
<path d="M18.754 176.593C20.6015 177.223 21.5889 179.231 20.9593 181.078C20.3296 182.926 18.3215 183.913 16.474 183.284C14.6264 182.654 13.6391 180.646 14.2687 178.798C14.8983 176.951 16.9065 175.963 18.754 176.593Z" fill="#F7791F"/>
<path d="M11.5312 200.307C13.4303 200.758 14.604 202.663 14.1529 204.562C13.7017 206.461 11.7965 207.635 9.89752 207.184C7.99849 206.733 6.82475 204.827 7.27589 202.928C7.72703 201.029 9.63221 199.856 11.5312 200.307Z" fill="#F7791F"/>
<path d="M6.60036 224.6C8.53367 224.869 9.88319 226.654 9.61461 228.587C9.34603 230.521 7.56105 231.87 5.62774 231.602C3.69443 231.333 2.34491 229.548 2.61349 227.615C2.88207 225.681 4.66705 224.332 6.60036 224.6Z" fill="#F7791F"/>
<path d="M4.00616 249.254C5.95624 249.338 7.46933 250.986 7.38574 252.936C7.30214 254.886 5.65352 256.399 3.70344 256.316C1.75336 256.232 0.240267 254.584 0.32386 252.634C0.407453 250.683 2.05607 249.17 4.00616 249.254Z" fill="#F7791F"/>
<path d="M3.77198 274.044C5.72118 273.942 7.38413 275.439 7.48628 277.388C7.58844 279.338 6.09111 281.001 4.14191 281.103C2.19271 281.205 0.529763 279.708 0.42761 277.758C0.325457 275.809 1.82278 274.146 3.77198 274.044Z" fill="#F7791F"/>
<path d="M5.90005 298.746C7.83071 298.459 9.62846 299.792 9.91543 301.723C10.2024 303.653 8.86993 305.451 6.93927 305.738C5.00861 306.025 3.21086 304.692 2.92388 302.762C2.63691 300.831 3.96938 299.033 5.90005 298.746Z" fill="#F7791F"/>
<path d="M10.3711 323.137C12.2657 322.668 14.182 323.823 14.6512 325.718C15.1204 327.613 13.9648 329.529 12.0702 329.998C10.1755 330.467 8.25925 329.312 7.79006 327.417C7.32086 325.523 8.47641 323.606 10.3711 323.137Z" fill="#F7791F"/>
<path d="M17.1444 346.995C18.9859 346.348 21.0033 347.316 21.6505 349.158C22.2977 350.999 21.3295 353.017 19.488 353.664C17.6466 354.311 15.6291 353.343 14.982 351.501C14.3348 349.66 15.303 347.642 17.1444 346.995Z" fill="#F7791F"/>
<path d="M26.159 370.105C27.9306 369.286 30.0309 370.058 30.8502 371.829C31.6695 373.601 30.8975 375.701 29.1259 376.521C27.3543 377.34 25.254 376.568 24.4347 374.796C23.6154 373.025 24.3874 370.924 26.159 370.105Z" fill="#F7791F"/>
<path d="M37.333 392.257C39.0187 391.273 41.1829 391.842 42.1669 393.527C43.1509 395.213 42.582 397.377 40.8963 398.361C39.2106 399.345 37.0464 398.776 36.0624 397.091C35.0784 395.405 35.6473 393.241 37.333 392.257Z" fill="#F7791F"/>
<path d="M50.5505 413.228C52.1351 412.088 54.3436 412.448 55.4833 414.033C56.6231 415.618 56.2625 417.826 54.678 418.966C53.0934 420.106 50.8849 419.745 49.7452 418.16C48.6054 416.576 48.966 414.367 50.5505 413.228Z" fill="#F7791F"/>
<path d="M65.624 432.871C67.093 431.586 69.3258 431.735 70.611 433.204C71.8962 434.673 71.7472 436.906 70.2782 438.191C68.8091 439.476 66.5764 439.327 65.2912 437.858C64.006 436.389 64.155 434.157 65.624 432.871Z" fill="#F7791F"/>
<path d="M82.5222 450.974C83.8624 449.555 86.0992 449.491 87.5183 450.831C88.9373 452.172 89.0012 454.408 87.661 455.827C86.3208 457.247 84.084 457.31 82.665 455.97C81.2459 454.63 81.182 452.393 82.5222 450.974Z" fill="#F7791F"/>
<path d="M101.07 467.387C102.269 465.847 104.489 465.571 106.029 466.77C107.569 467.969 107.846 470.19 106.646 471.73C105.447 473.27 103.226 473.546 101.686 472.347C100.146 471.147 99.8703 468.927 101.07 467.387Z" fill="#F7791F"/>
<path d="M121.098 481.961C122.145 480.314 124.33 479.828 125.977 480.875C127.624 481.922 128.11 484.107 127.062 485.754C126.015 487.401 123.831 487.887 122.183 486.839C120.536 485.792 120.05 483.608 121.098 481.961Z" fill="#F7791F"/>
<path d="M142.426 494.564C143.312 492.824 145.44 492.133 147.179 493.019C148.918 493.905 149.61 496.033 148.724 497.773C147.838 499.512 145.709 500.203 143.97 499.317C142.231 498.431 141.54 496.303 142.426 494.564Z" fill="#F7791F"/>
<path d="M164.994 505.173C165.711 503.358 167.764 502.467 169.579 503.184C171.395 503.901 172.285 505.953 171.568 507.769C170.852 509.584 168.799 510.475 166.983 509.758C165.168 509.041 164.277 506.989 164.994 505.173Z" fill="#F7791F"/>
<path d="M188.339 513.508C188.88 511.633 190.839 510.551 192.715 511.092C194.59 511.633 195.672 513.592 195.131 515.467C194.59 517.343 192.631 518.424 190.756 517.883C188.88 517.342 187.799 515.383 188.339 513.508Z" fill="#F7791F"/>
<path d="M212.376 519.587C212.736 517.668 214.583 516.405 216.502 516.765C218.42 517.126 219.683 518.973 219.323 520.891C218.963 522.81 217.115 524.073 215.197 523.712C213.279 523.352 212.016 521.505 212.376 519.587Z" fill="#F7791F"/>
<path d="M236.885 523.353C237.061 521.409 238.78 519.977 240.724 520.153C242.668 520.329 244.101 522.048 243.925 523.992C243.748 525.936 242.03 527.369 240.086 527.192C238.142 527.016 236.709 525.297 236.885 523.353Z" fill="#F7791F"/>
<path d="M261.646 524.775C261.636 522.823 263.211 521.233 265.163 521.224C267.115 521.214 268.705 522.789 268.714 524.741C268.723 526.693 267.148 528.283 265.197 528.292C263.245 528.301 261.655 526.726 261.646 524.775Z" fill="#F7791F"/>
<path d="M286.433 523.837C286.238 521.895 287.655 520.163 289.597 519.968C291.539 519.773 293.271 521.19 293.466 523.132C293.661 525.074 292.244 526.806 290.302 527.001C288.36 527.196 286.628 525.779 286.433 523.837Z" fill="#F7791F"/>
<path d="M311.023 520.55C310.644 518.635 311.89 516.776 313.804 516.397C315.719 516.019 317.578 517.264 317.957 519.179C318.335 521.094 317.09 522.953 315.175 523.332C313.26 523.71 311.401 522.465 311.023 520.55Z" fill="#F7791F"/>
<path d="M335.192 514.942C334.633 513.072 335.696 511.103 337.566 510.544C339.437 509.985 341.406 511.048 341.965 512.919C342.523 514.789 341.46 516.758 339.59 517.317C337.72 517.876 335.751 516.812 335.192 514.942Z" fill="#F7791F"/>
<path d="M358.722 507.065C357.988 505.257 358.859 503.195 360.668 502.461C362.477 501.727 364.538 502.598 365.272 504.407C366.006 506.216 365.135 508.277 363.326 509.011C361.518 509.745 359.456 508.874 358.722 507.065Z" fill="#F7791F"/>
<path d="M381.4 496.99C380.498 495.259 381.169 493.125 382.899 492.222C384.63 491.319 386.765 491.991 387.667 493.721C388.57 495.452 387.899 497.586 386.168 498.489C384.438 499.392 382.303 498.721 381.4 496.99Z" fill="#F7791F"/>
<path d="M403.02 484.808C401.957 483.171 402.423 480.982 404.06 479.919C405.697 478.856 407.885 479.321 408.948 480.958C410.012 482.595 409.546 484.784 407.909 485.847C406.272 486.91 404.084 486.445 403.02 484.808Z" fill="#F7791F"/>
<path d="M423.327 470.616C422.113 469.088 422.368 466.864 423.896 465.651C425.425 464.437 427.648 464.692 428.862 466.22C430.076 467.749 429.821 469.972 428.292 471.186C426.764 472.4 424.541 472.145 423.327 470.616Z" fill="#F7791F"/>
<path d="M442.195 454.556C440.842 453.15 440.884 450.913 442.291 449.559C443.697 448.205 445.934 448.248 447.288 449.654C448.641 451.061 448.599 453.298 447.193 454.651C445.786 456.005 443.549 455.963 442.195 454.556Z" fill="#F7791F"/>
<path d="M459.456 436.774C457.975 435.503 457.805 433.272 459.076 431.79C460.347 430.309 462.578 430.139 464.059 431.41C465.54 432.681 465.711 434.912 464.44 436.394C463.168 437.875 460.937 438.045 459.456 436.774Z" fill="#F7791F"/>
<path d="M474.952 417.43C473.357 416.305 472.975 414.1 474.1 412.505C475.224 410.91 477.429 410.528 479.025 411.653C480.62 412.778 481.001 414.982 479.877 416.578C478.752 418.173 476.547 418.555 474.952 417.43Z" fill="#F7791F"/>
<path d="M488.543 396.7C486.848 395.732 486.259 393.573 487.227 391.878C488.194 390.183 490.353 389.594 492.048 390.562C493.743 391.529 494.333 393.688 493.365 395.383C492.397 397.078 490.238 397.668 488.543 396.7Z" fill="#F7791F"/>
<path d="M500.106 374.771C498.327 373.968 497.535 371.875 498.337 370.096C499.14 368.317 501.233 367.525 503.012 368.327C504.791 369.129 505.583 371.222 504.781 373.002C503.978 374.781 501.886 375.573 500.106 374.771Z" fill="#F7791F"/>
<path d="M509.537 351.842C507.689 351.212 506.702 349.204 507.332 347.356C507.961 345.509 509.969 344.521 511.817 345.151C513.664 345.781 514.652 347.789 514.022 349.636C513.392 351.484 511.384 352.471 509.537 351.842Z" fill="#F7791F"/>
<path d="M516.749 328.12C514.85 327.669 513.676 325.764 514.128 323.865C514.579 321.966 516.484 320.792 518.383 321.243C520.282 321.694 521.456 323.599 521.005 325.498C520.554 327.397 518.648 328.571 516.749 328.12Z" fill="#F7791F"/>
<path d="M521.678 303.821C519.745 303.552 518.395 301.767 518.664 299.834C518.933 297.901 520.718 296.551 522.651 296.82C524.584 297.088 525.934 298.873 525.665 300.807C525.397 302.74 523.612 304.089 521.678 303.821Z" fill="#F7791F"/>
<path d="M524.279 279.164C522.329 279.081 520.816 277.432 520.9 275.482C520.983 273.532 522.632 272.019 524.582 272.102C526.532 272.186 528.045 273.835 527.962 275.785C527.878 277.735 526.229 279.248 524.279 279.164Z" fill="#F7791F"/>
<path d="M524.529 254.373C522.58 254.476 520.917 252.978 520.815 251.029C520.712 249.08 522.21 247.417 524.159 247.315C526.108 247.213 527.771 248.71 527.873 250.659C527.975 252.608 526.478 254.271 524.529 254.373Z" fill="#F7791F"/>
<path d="M522.424 229.673C520.494 229.96 518.696 228.627 518.409 226.697C518.122 224.766 519.454 222.968 521.385 222.681C523.316 222.394 525.113 223.727 525.4 225.657C525.687 227.588 524.355 229.386 522.424 229.673Z" fill="#F7791F"/>
<path d="M517.985 205.286C516.09 205.755 514.174 204.6 513.705 202.705C513.236 200.81 514.391 198.894 516.286 198.425C518.181 197.956 520.097 199.111 520.566 201.006C521.035 202.901 519.88 204.817 517.985 205.286Z" fill="#F7791F"/>
<path d="M511.251 181.434C509.41 182.081 507.392 181.113 506.745 179.272C506.098 177.43 507.066 175.413 508.908 174.766C510.749 174.118 512.767 175.087 513.414 176.928C514.061 178.77 513.093 180.787 511.251 181.434Z" fill="#F7791F"/>
<path d="M502.284 158.333C500.512 159.152 498.412 158.38 497.593 156.609C496.773 154.837 497.545 152.737 499.317 151.918C501.089 151.098 503.189 151.87 504.008 153.642C504.828 155.413 504.056 157.514 502.284 158.333Z" fill="#F7791F"/>
<path d="M491.164 136.192C489.478 137.176 487.314 136.607 486.33 134.921C485.346 133.236 485.915 131.071 487.601 130.087C489.286 129.104 491.451 129.672 492.435 131.358C493.419 133.044 492.85 135.208 491.164 136.192Z" fill="#F7791F"/>
<path d="M477.962 115.205C476.378 116.345 474.169 115.984 473.03 114.4C471.89 112.815 472.25 110.607 473.835 109.467C475.419 108.327 477.628 108.688 478.768 110.272C479.907 111.857 479.547 114.065 477.962 115.205Z" fill="#F7791F"/>
<path d="M462.798 95.5622C461.329 96.8474 459.096 96.6984 457.811 95.2294C456.526 93.7604 456.675 91.5276 458.144 90.2424C459.613 88.9572 461.845 89.1062 463.131 90.5752C464.416 92.0442 464.267 94.277 462.798 95.5622Z" fill="#F7791F"/>
<path d="M445.838 77.4478C444.498 78.8669 442.261 78.9308 440.842 77.5906C439.423 76.2504 439.359 74.0136 440.7 72.5945C442.04 71.1755 444.277 71.1116 445.696 72.4518C447.115 73.792 447.179 76.0288 445.838 77.4478Z" fill="#F7791F"/>
<path d="M427.238 61.026C426.039 62.566 423.818 62.8422 422.278 61.643C420.738 60.4437 420.462 58.2231 421.661 56.6831C422.861 55.1431 425.081 54.8669 426.621 56.0661C428.161 57.2654 428.437 59.486 427.238 61.026Z" fill="#F7791F"/>
<path d="M407.165 46.4454C406.118 48.0924 403.933 48.5785 402.286 47.5311C400.639 46.4836 400.153 44.2993 401.201 42.6523C402.248 41.0053 404.432 40.5192 406.079 41.5667C407.726 42.6141 408.212 44.7984 407.165 46.4454Z" fill="#F7791F"/>
<path d="M385.801 33.8381C384.915 35.5772 382.786 36.2687 381.047 35.3826C379.308 34.4965 378.617 32.3683 379.503 30.6291C380.389 28.89 382.517 28.1985 384.256 29.0846C385.995 29.9708 386.687 32.099 385.801 33.8381Z" fill="#F7791F"/>
<path d="M363.339 23.3182C362.622 25.1337 360.569 26.0244 358.754 25.3076C356.938 24.5908 356.048 22.5379 356.765 20.7225C357.481 18.907 359.534 18.0163 361.35 18.7331C363.165 19.4499 364.056 21.5027 363.339 23.3182Z" fill="#F7791F"/>
<path d="M339.983 14.9812C339.442 16.8566 337.483 17.9384 335.608 17.3974C333.733 16.8564 332.651 14.8975 333.192 13.0221C333.733 11.1467 335.692 10.0649 337.567 10.6059C339.442 11.1469 340.524 13.1058 339.983 14.9812Z" fill="#F7791F"/>
<path d="M315.945 8.9023C315.585 10.8206 313.738 12.0837 311.819 11.7234C309.901 11.3632 308.638 9.516 308.998 7.59766C309.358 5.67932 311.205 4.41625 313.124 4.77652C315.042 5.13679 316.305 6.98396 315.945 8.9023Z" fill="#F7791F"/>
<path d="M291.442 5.13677C291.265 7.08066 289.547 8.5136 287.603 8.33731C285.659 8.16102 284.226 6.44227 284.402 4.49838C284.579 2.55448 286.297 1.12155 288.241 1.29784C290.185 1.47412 291.618 3.19287 291.442 5.13677Z" fill="#F7791F"/>
<path d="M266.695 3.71862C266.705 5.67047 265.13 7.26029 263.178 7.26959C261.226 7.27888 259.636 5.70412 259.627 3.75227C259.618 1.80042 261.193 0.210595 263.144 0.201304C265.096 0.192014 266.686 1.76677 266.695 3.71862Z" fill="#F7791F"/>
<path d="M241.93 4.66062C242.125 6.60275 240.709 8.33507 238.767 8.52985C236.824 8.72463 235.092 7.30813 234.897 5.366C234.703 3.42387 236.119 1.69156 238.061 1.49677C240.003 1.30199 241.736 2.71849 241.93 4.66062Z" fill="#F7791F"/>
<path d="M217.371 7.95433C217.749 9.86915 216.504 11.7283 214.589 12.1068C212.674 12.4853 210.815 11.2399 210.437 9.32505C210.058 7.41023 211.304 5.55111 213.218 5.1726C215.133 4.79409 216.992 6.03951 217.371 7.95433Z" fill="#F7791F"/>
<path d="M193.239 13.57C193.798 15.4401 192.735 17.4092 190.865 17.968C188.994 18.5269 187.025 17.4638 186.466 15.5936C185.908 13.7235 186.971 11.7544 188.841 11.1956C190.711 10.6367 192.68 11.6998 193.239 13.57Z" fill="#F7791F"/>
<path d="M169.753 21.4566C170.487 23.2652 169.616 25.3264 167.808 26.0605C165.999 26.7945 163.938 25.9235 163.204 24.1149C162.47 22.3063 163.341 20.2451 165.15 19.511C166.958 18.777 169.019 19.648 169.753 21.4566Z" fill="#F7791F"/>
<path d="M147.127 31.5428C148.03 33.2734 147.359 35.4081 145.628 36.3107C143.897 37.2134 141.763 36.5422 140.86 34.8116C139.957 33.081 140.629 30.9463 142.359 30.0436C144.09 29.141 146.224 29.8122 147.127 31.5428Z" fill="#F7791F"/>
<path d="M125.565 43.7373C126.628 45.3743 126.162 47.5631 124.525 48.6262C122.888 49.6892 120.7 49.224 119.637 47.587C118.574 45.95 119.039 43.7612 120.676 42.6981C122.313 41.6351 124.502 42.1003 125.565 43.7373Z" fill="#F7791F"/>
</svg>
